<?xml version="1.0" standalone="no"?>
<!DOCTYPE svg PUBLIC "-//W3C//DTD SVG 20010904//EN"
 "http://www.w3.org/TR/2001/REC-SVG-20010904/DTD/svg10.dtd">
<svg version="1.0" xmlns="http://www.w3.org/2000/svg"
 width="512.000000pt" height="512.000000pt" viewBox="0 0 512.000000 512.000000"
 preserveAspectRatio="xMidYMid meet">
<metadata>
Created by potrace 1.14, written by Peter Selinger 2001-2017
</metadata>
<g transform="translate(0.000000,512.000000) scale(0.100000,-0.100000)"
fill="#000000" stroke="none">
<path d="M1024 4948 c46 -95 235 -477 421 -847 361 -724 356 -710 304 -754
-48 -39 -44 -41 -601 246 -293 151 -671 345 -840 431 l-308 157 0 -428 0 -428
117 3 c143 5 222 -12 348 -73 164 -80 280 -196 360 -360 60 -123 79 -204 79
-345 -1 -135 -17 -207 -75 -327 -77 -160 -189 -272 -354 -354 -129 -63 -215
-81 -363 -77 l-112 3 0 -428 0 -429 388 198 c213 108 591 302 840 431 356 183
458 232 477 227 30 -7 75 -58 75 -84 0 -11 -189 -397 -420 -860 -231 -462
-420 -843 -420 -845 0 -3 190 -5 423 -5 l423 0 -7 72 c-34 367 208 706 578
810 100 28 276 30 373 5 86 -23 231 -95 302 -151 127 -101 228 -261 269 -425
17 -67 20 -106 17 -197 l-3 -114 432 0 432 0 -83 173 c-46 94 -235 475 -420
845 -185 370 -336 681 -336 691 0 27 45 78 75 85 20 5 129 -47 522 -250 624
-322 1175 -604 1179 -604 2 0 4 192 4 428 l0 427 -120 -3 c-144 -4 -241 17
-366 78 -148 74 -255 180 -333 330 -63 120 -85 213 -85 355 1 143 16 211 79
340 82 170 180 271 347 355 128 64 214 83 362 78 l116 -3 0 428 0 428 -287
-147 c-159 -81 -537 -275 -841 -431 -579 -298 -573 -295 -621 -256 -52 44 -63
17 388 921 232 463 421 845 421 847 0 3 -195 5 -433 5 l-432 0 3 -112 c4 -139
-13 -231 -65 -341 -46 -97 -85 -154 -160 -230 -158 -160 -408 -247 -627 -219
-312 40 -563 244 -655 533 -22 67 -42 216 -36 259 2 14 6 44 9 68 l4 42 -423
0 -424 0 83 -172z m1769 -1655 c126 -44 189 -85 298 -193 82 -82 103 -109 143
-190 62 -127 86 -226 86 -355 0 -428 -339 -765 -770 -765 -556 0 -926 553
-713 1065 93 224 286 390 528 456 56 15 97 18 205 16 120 -3 144 -7 223 -34z"/>
</g>
</svg>
