<svg xmlns="http://www.w3.org/2000/svg" fill="none" viewBox="0 0 95 14">
  <g clip-path="url(#a)">
    <path fill="#000" d="M9.982 5.08C9.8 3.727 8.77 3.01 7.338 3.01 5.135 3.01 4.29 5.006 4.29 7s.845 3.99 3.048 3.99c1.598 0 2.515-.942 2.644-2.484h3.416C13.214 11.968 10.735 14 7.41 14 3.445 14 .875 10.895.875 7s2.57-7 6.536-7c2.828 0 5.895 1.844 5.987 5.08H9.982Zm3.93 8.67h3.122V.315h-3.122V13.75Zm13.716-4.134c.147-3.312-1.56-5.947-4.976-5.947-2.809 0-5.14 2.146-5.14 5.137 0 3.275 2.11 5.194 5.213 5.194 2.13 0 4.169-.978 4.738-3.237h-2.92c-.293.715-1.027 1.073-1.78 1.073-1.322 0-2.075-.885-2.13-2.22h6.995Zm-6.995-1.788c.184-1.186.918-1.995 2.02-1.995 1.046 0 1.799.904 1.854 1.995h-3.874Zm10.265-.876c.146-.828.697-1.224 1.56-1.224.643 0 1.506.283 1.506 1.017 0 .602-.294.79-.827.903-2.166.451-5.545.207-5.545 3.387 0 2.013 1.433 2.954 3.25 2.954 1.14 0 2.332-.339 3.14-1.204.025.314.086.623.184.922h3.14c-.368-.771-.368-1.675-.368-2.503V6.933c0-2.766-2.185-3.274-4.443-3.274-1.083 0-2.185.188-3.03.677-.844.508-1.432 1.336-1.487 2.616h2.92Zm1.12 5.06c-.698 0-1.304-.32-1.304-1.11 0-.77.588-1.072 1.285-1.241.68-.189 1.488-.245 1.928-.527.074 2.013-.422 2.879-1.91 2.879Zm5.656 1.748h3.121V8.924c0-1.223.808-2.314 2.35-2.314.405.006.807.069 1.194.188V3.881a3.243 3.243 0 0 0-.735-.075c-1.34 0-2.405.659-2.864 1.9h-.037V3.995h-3.03v9.766Zm22.238-9.82h-3.176l-1.561 6.304h-.037l-1.395-6.303h-2.975l-1.359 6.323h-.036L47.775 3.94h-3.158l2.974 9.766h3.159l1.487-6.492h.037l1.505 6.492h3.159l2.974-9.766Zm4.261-.335c-2.956 0-5.013 2.24-5.013 5.175 0 2.935 2.057 5.155 5.013 5.155s5.03-2.22 5.03-5.155c0-2.936-2.074-5.175-5.03-5.175Zm0 7.884c-1.45 0-1.891-1.468-1.891-2.71 0-1.241.44-2.728 1.891-2.728 1.45 0 1.91 1.487 1.91 2.729s-.46 2.71-1.91 2.71Zm5.436 2.218h3.121V8.87c0-1.223.808-2.315 2.35-2.315.405.006.806.07 1.194.189V3.828a3.244 3.244 0 0 0-.734-.075c-1.34 0-2.406.658-2.865 1.9h-.037V3.941h-3.03v9.766Zm7.07.075h3.12v-3.124l.808-.809 2.332 3.933h3.764l-3.929-6.078 3.489-3.688h-3.617L79.8 7.27V.347h-3.122v13.435Zm8.96-3.282c.092 2.729 2.405 3.5 4.664 3.5 2.148 0 4.572-.866 4.572-3.481 0-.81-.496-2.24-2.423-2.635-1.433-.32-3.526-.489-3.526-1.411 0-.677.826-.734 1.34-.734.347-.015.69.07.992.245.257.17.404.433.404.847h2.883c-.11-2.54-2.295-3.161-4.389-3.161-1.872 0-4.351.64-4.351 2.992 0 2.634 2.46 2.69 4.425 3.199.551.132 1.524.282 1.524 1.035 0 .771-.863 1.035-1.47 1.035a1.92 1.92 0 0 1-1.156-.34 1.306 1.306 0 0 1-.387-.48 1.34 1.34 0 0 1-.127-.61l-2.975-.001Z"/>
  </g>
  <defs>
    <clipPath id="a">
      <path fill="#fff" d="M0 0h94v14H0z" transform="translate(.875)"/>
    </clipPath>
  </defs>
</svg>
