<svg xmlns="http://www.w3.org/2000/svg" fill="none" viewBox="0 0 74 28">
  <g clip-path="url(#a)">
    <path fill="#000" fill-rule="evenodd" d="M4.666 22.66s.993 1.147 2.745 1.126c2.874-.034 3.327-1.562 3.355-2.778v-.069l-.04.028c-.714.447-1.809.84-2.951.905a7.985 7.985 0 0 1-4.085-.908C1.664 19.88.338 17.96.029 15.085c0 0-.03-.446-.029-.66 0-.25.029-.574.029-.574a7.712 7.712 0 0 1 2.09-4.648c1.099-1.166 2.635-1.984 4.509-2.18 0 0 .327-.023.563-.023.247 0 .625.023.625.023A7.34 7.34 0 0 1 11.1 8.166v-.937h3.766V20.56c0 2.007-.409 3.522-1.661 4.75-1.362 1.336-3.622 2.161-6.29 1.995-1.976-.123-3.515-.957-4.705-2.066l2.457-2.58ZM5.85 11.135c-1.056.521-1.936 1.618-2.049 2.92-.288 3.312 3.2 5.031 5.573 3.58.913-.56 1.762-1.742 1.762-3.168 0-1.558-1.018-2.776-2.008-3.29-.534-.278-1.385-.424-2.172-.33-.415.05-.819.146-1.106.288Zm30.608-4.113S36.746 7 37.062 7c.243 0 .583.023.583.023 1.133.113 2.212.47 2.992.946.22.135.29.162.29.162V7.23h3.767v14.413h-3.767v-.914l-.157.109c-1.02.672-2.244 1.027-3.658 1.035-1.572.008-2.83-.444-3.811-1.07-1.951-1.245-3.484-3.36-3.484-6.334 0-2.208.857-3.8 1.967-5.06 1.132-1.282 2.57-2.171 4.673-2.385Zm-1.968 5.043c-.492.559-.964 1.349-.902 2.437.082 1.414.943 2.432 1.967 2.947 1.029.518 2.395.476 3.32.04 1.524-.718 2.751-2.917 1.64-4.835-.602-1.037-1.984-2.014-3.771-1.808-1.008.116-1.707.596-2.254 1.219Zm10.855-4.837.125.365c1.655 4.716 3.378 9.338 5.039 14.048h4.261c1.697-4.851 3.484-9.587 5.205-14.413h-4.016c-.823 2.314-1.637 4.645-2.46 6.91-.279.77-.575 1.546-.9 2.263-1.085-3.08-2.215-6.114-3.32-9.173h-3.934Zm-29.123 8.089c0 2.245.876 3.854 1.657 4.703.883.96 2.091 1.739 3.748 1.85 1.544.105 2.659-.274 3.634-.78v.55h3.766V7.23H25.26v7.91s-.05 1.265-.604 1.975c-.608.78-1.526 1.06-2.08 1.06-.565 0-1.42-.2-2.066-1.05-.575-.755-.523-1.985-.523-1.985v-7.91h-3.755l-.01 8.089Zm49.311-8.295S65.821 7 66.138 7c.242 0 .582.023.582.023 1.134.113 2.212.47 2.992.946.22.135.29.162.29.162V7.23h3.767v14.413h-3.766v-.914s-.12.084-.158.109c-1.02.672-2.244 1.027-3.658 1.035-1.572.008-2.831-.444-3.811-1.07-1.951-1.245-3.483-3.36-3.483-6.334 0-2.208.856-3.8 1.967-5.06 1.131-1.282 2.57-2.171 4.672-2.385Zm-1.968 5.1c-.491.586-.964 1.412-.902 2.55a3.666 3.666 0 0 0 1.967 3.086c1.03.541 2.395.497 3.32.04 1.524-.751 2.751-3.052 1.64-5.059a3.797 3.797 0 0 0-3.77-1.891c-1.009.12-1.707.623-2.255 1.274Z" clip-rule="evenodd"/>
  </g>
  <defs>
    <clipPath id="a">
      <path fill="#fff" d="M0 0h74v28H0z"/>
    </clipPath>
  </defs>
</svg>
