<svg width="64" height="41" viewBox="0 0 64 41" fill="none" xmlns="http://www.w3.org/2000/svg">
<path d="M3.0469 21.4432C2.71374 21.4492 2.33518 21.3683 1.91121 21.2004C1.48755 21.0501 1.17678 20.8364 0.978877 20.5593C0.906858 20.4554 0.86114 20.351 0.841724 20.2461C0.822308 20.1412 0.803049 20.045 0.783947 19.9577C0.760143 19.6073 0.764051 19.3353 0.795672 19.1418C0.82698 18.9308 0.884747 18.728 0.968972 18.5336C1.0532 18.3391 1.14541 18.1007 1.2456 17.8183C1.26219 17.7654 1.33077 17.6764 1.45131 17.5515C1.57186 17.4265 1.69241 17.3016 1.81296 17.1767C1.95073 17.0339 2.03668 16.9359 2.07081 16.8826C2.1566 16.7759 2.22502 16.6782 2.27605 16.5896C2.34463 16.5006 2.44874 16.4374 2.58839 16.3998C2.62315 16.3816 2.64929 16.3724 2.66683 16.3721C2.70189 16.3715 2.72804 16.3622 2.74526 16.3444C2.81258 16.1853 2.88929 16.0612 2.9754 15.9719C3.07873 15.8648 3.19098 15.7663 3.31215 15.6765C3.41579 15.5869 3.62417 15.4692 3.93729 15.3233C4.26794 15.177 4.49464 15.1028 4.61739 15.1006C4.70506 15.0991 4.78428 15.1152 4.85505 15.149C4.94335 15.1825 5.03133 15.1985 5.11901 15.1969L5.19744 15.1692C5.21623 15.239 5.28747 15.2991 5.41115 15.3495C5.53515 15.4175 5.7033 15.5022 5.91559 15.6036C6.14543 15.7048 6.27037 15.8253 6.29041 15.9653C6.29135 16.0179 6.25816 16.1237 6.19084 16.2828C6.14106 16.4415 6.06482 16.592 5.96212 16.7341C5.87695 16.876 5.79069 16.9565 5.70333 16.9756C5.70176 16.8879 5.70051 16.8178 5.69957 16.7652C5.71616 16.7122 5.7326 16.6505 5.74888 16.5801C5.74794 16.5275 5.74715 16.4837 5.74653 16.4486C5.76312 16.3957 5.77095 16.3429 5.77001 16.2903C5.75091 16.2029 5.71443 16.1247 5.66057 16.0555C5.60671 15.9863 5.53594 15.9524 5.44827 15.954C5.22032 15.9581 4.95918 16.068 4.66485 16.2837C4.37052 16.4995 4.09419 16.7412 3.83588 17.009C3.57724 17.2591 3.37935 17.4732 3.24221 17.651C2.98421 17.9363 2.76127 18.2209 2.5734 18.5049C2.40307 18.7886 2.27752 19.1241 2.19674 19.5115C2.1814 19.6345 2.16606 19.7576 2.15072 19.8806C2.15291 20.0034 2.15526 20.1349 2.15777 20.2752C2.19378 20.3271 2.21241 20.3882 2.21367 20.4583C2.23246 20.5282 2.25986 20.5891 2.29587 20.641C2.33125 20.6579 2.34925 20.6839 2.34988 20.719C2.36804 20.7538 2.38605 20.7797 2.4039 20.797L2.43114 20.8491L2.43161 20.8754L2.64203 20.8716C2.81737 20.8685 2.96611 20.8483 3.08822 20.811C3.21034 20.7738 3.33261 20.7453 3.45504 20.7256C3.54209 20.6889 3.62929 20.661 3.71665 20.6419C3.82123 20.605 3.92613 20.5856 4.03134 20.5837C4.13498 20.4941 4.2477 20.422 4.3695 20.3672C4.49099 20.2948 4.61264 20.2313 4.73444 20.1765L4.7335 20.1239C4.87409 20.1389 5.00482 20.0927 5.12568 19.9853C5.26408 19.8776 5.38541 19.7965 5.48968 19.742C5.8889 19.5068 6.27059 19.272 6.63475 19.0374C6.9989 18.8029 7.34505 18.5424 7.6732 18.2559C7.72517 18.2199 7.84619 18.1212 8.03625 17.96C8.22632 17.7987 8.33888 17.7178 8.37395 17.7171C8.37395 17.7171 8.39117 17.6993 8.42561 17.6636C8.56746 17.7488 8.63917 17.8352 8.64073 17.9229C8.64261 18.0281 8.59189 18.1342 8.48856 18.2413C8.38524 18.3484 8.29021 18.429 8.20347 18.4832C8.13396 18.5195 8.0646 18.5646 7.99541 18.6185C7.94343 18.6545 7.89145 18.6905 7.83947 18.7265C7.76996 18.7628 7.70061 18.8079 7.63141 18.8618C7.57943 18.8978 7.53638 18.9424 7.50225 18.9956C7.46843 19.0664 7.42569 19.1286 7.37403 19.1821C7.3399 19.2353 7.27916 19.2715 7.1918 19.2906L7.16643 19.3437C7.04494 19.416 6.92361 19.4971 6.80244 19.587C6.68095 19.6593 6.55961 19.7404 6.43844 19.8303C6.36924 19.8841 6.31711 19.9114 6.28204 19.912C6.09072 20.0031 5.89127 20.1295 5.68367 20.291C5.52774 20.3991 5.3895 20.5156 5.26895 20.6405C5.14809 20.7479 4.99137 20.8121 4.7988 20.8331C4.76593 20.9564 4.67951 21.0282 4.53954 21.0482C4.41711 21.0679 4.31237 21.0961 4.22533 21.1327C3.86054 21.3322 3.46774 21.4357 3.0469 21.4432ZM9.40547 21.2506C9.07231 21.2566 8.80725 21.1473 8.6103 20.9228C8.43056 20.6804 8.33803 20.4102 8.3327 20.1121C8.32549 19.7088 8.3964 19.2603 8.54544 18.7665C8.69416 18.2552 8.83568 17.8317 8.97 17.496C9.00288 17.3726 9.0536 17.2665 9.12217 17.1776C9.19043 17.0711 9.2233 16.9477 9.2208 16.8074C9.27246 16.7539 9.32334 16.6565 9.37344 16.5153C9.44107 16.3738 9.48302 16.2678 9.4993 16.1973C9.43011 16.2512 9.34384 16.3317 9.24052 16.4387C9.13719 16.5458 9.042 16.6177 8.95495 16.6543L8.87558 16.6294C8.82172 16.5602 8.82031 16.4813 8.87134 16.3927C8.90579 16.357 8.94868 16.3036 9.00003 16.2326C9.06861 16.1436 9.13733 16.0635 9.20622 15.9921C9.27479 15.9031 9.33475 15.8231 9.3861 15.7521C9.45499 15.6807 9.49788 15.6273 9.51479 15.5919C9.63503 15.4494 9.72959 15.3425 9.79847 15.2711C9.86704 15.1822 9.98791 15.0748 10.1611 14.9489C10.249 14.9649 10.39 14.9974 10.5838 15.0466C10.7948 15.0779 10.9976 15.1357 11.192 15.2199C11.3862 15.2866 11.4843 15.3813 11.4865 15.504C11.5059 15.6089 11.4388 15.7768 11.285 16.0075C11.1485 16.2205 10.9945 16.4337 10.8229 16.6472C10.6688 16.8605 10.5578 17.0291 10.4899 17.1531C10.3706 17.3482 10.2771 17.5165 10.2095 17.658C10.1419 17.7995 10.0828 17.9322 10.0324 18.0558L9.68113 19.0093C9.61413 19.1859 9.56434 19.3447 9.53178 19.4856C9.49922 19.6265 9.46713 19.7937 9.43551 19.9872C9.43582 20.0047 9.42768 20.0399 9.41109 20.0929C9.41171 20.1279 9.41234 20.163 9.41297 20.1981C9.41422 20.2682 9.42424 20.3382 9.44303 20.408C9.47935 20.4775 9.53258 20.5117 9.60272 20.5104C9.67286 20.5091 9.76836 20.4548 9.88923 20.3474C10.2524 20.0603 10.5543 19.7742 10.7948 19.4893C10.9325 19.3465 11.0615 19.2039 11.1818 19.0614C11.302 18.9189 11.4395 18.7586 11.5941 18.5804C11.9724 18.1527 12.3508 17.7337 12.7293 17.3235C13.1251 16.8955 13.4946 16.4679 13.8377 16.0408C13.9235 15.934 14.0176 15.8008 14.12 15.6411C14.2221 15.4639 14.3345 15.3742 14.4572 15.372L14.4835 15.3715C14.5888 15.3696 14.7826 15.4188 15.065 15.519C15.3471 15.6016 15.4891 15.6956 15.491 15.8008L15.4929 15.906C15.4957 16.0638 15.4544 16.2049 15.3689 16.3292C15.3176 16.4003 15.2748 16.4624 15.2407 16.5156C15.2066 16.5689 15.1728 16.6396 15.1392 16.7279C15.1236 16.8335 15.0989 16.9216 15.065 16.9924C15.0312 17.0631 14.989 17.1516 14.9382 17.2577C14.7851 17.5236 14.6427 17.8945 14.5108 18.3704C14.379 18.8464 14.3246 19.2332 14.3474 19.531C14.349 19.6187 14.3604 19.7676 14.3817 19.9777C14.4202 20.1699 14.4749 20.283 14.5456 20.3168C14.7207 20.2961 14.8589 20.1796 14.9604 19.9673C15.0793 19.7547 15.1816 19.5863 15.2671 19.462C15.3525 19.3376 15.4566 19.2744 15.5794 19.2722C15.5979 19.3245 15.6079 19.3945 15.6095 19.4821C15.6107 19.5523 15.5944 19.6227 15.5606 19.6935C15.5268 19.7643 15.4931 19.8438 15.4596 19.9321C15.4264 20.0379 15.3933 20.1438 15.3601 20.2496C15.3441 20.3376 15.3018 20.4261 15.2333 20.515C15.1315 20.7097 14.9403 20.8096 14.6598 20.8146C14.2565 20.8219 13.8862 20.7145 13.549 20.4925C13.2293 20.2702 13.0491 20.0015 13.0084 19.6865C12.9849 19.3537 13.0132 18.976 13.0934 18.5536C13.191 18.1309 13.2986 17.7694 13.416 17.4691C13.4157 17.4516 13.4154 17.4341 13.4151 17.4165C13.4323 17.3987 13.4407 17.381 13.4404 17.3635C13.3371 17.4705 13.2427 17.5862 13.1572 17.7106C13.0717 17.8349 12.9595 17.9333 12.8205 18.006L12.5875 18.2206C12.4181 18.5569 12.2043 18.8589 11.9459 19.1267C11.6876 19.3944 11.4382 19.6707 11.1978 19.9557C10.9748 20.2403 10.7168 20.5256 10.4237 20.8114C10.1482 21.097 9.80877 21.2434 9.40547 21.2506ZM16.5929 21.3852C16.4702 21.3874 16.338 21.3547 16.1965 21.2871C16.055 21.2194 15.9568 21.1247 15.902 21.0029L15.926 20.8709C16.0215 20.3255 16.1699 19.7966 16.3712 19.2844C16.5725 18.7721 16.7563 18.2601 16.9226 17.7485C17.0559 17.3602 17.2053 16.8839 17.3706 16.3197C17.5359 15.7555 17.6147 15.2541 17.6068 14.8158C17.6059 14.7632 17.6049 14.7106 17.604 14.658C17.6028 14.5878 17.5929 14.5266 17.5744 14.4743C17.4517 14.4765 17.338 14.4961 17.2334 14.533C17.1285 14.5525 17.0147 14.5633 16.892 14.5655L16.8657 14.5659C16.778 14.5675 16.7332 14.5157 16.7313 14.4105C16.7304 14.3579 16.7644 14.2959 16.8332 14.2245C16.9021 14.1531 17.0067 14.1161 17.147 14.1136C17.1999 14.1302 17.3491 14.1363 17.5946 14.1319C17.7349 14.1294 17.9279 14.1347 18.1737 14.1479C18.4192 14.1435 18.6476 14.1657 18.859 14.2146C19.0879 14.2631 19.2214 14.3747 19.2596 14.5494C19.279 14.6543 19.23 14.8569 19.1126 15.1572C19.0124 15.4396 18.8952 15.7487 18.7609 16.0844C18.609 16.4203 18.4658 16.7474 18.3311 17.0655C18.281 17.2068 18.2309 17.348 18.1808 17.4892C18.1304 17.6129 18.106 17.7186 18.1076 17.8062L18.108 17.8325L18.1592 17.7527C18.2616 17.593 18.3642 17.4421 18.4669 17.2999C18.5871 17.1574 18.6812 17.0242 18.7491 16.9002C18.8349 16.7934 18.9636 16.6333 19.1352 16.4197C19.324 16.1883 19.5127 15.9481 19.7012 15.6992C19.9072 15.45 20.1044 15.2009 20.2929 14.9519C20.499 14.7027 20.6798 14.5153 20.8354 14.3897C20.8698 14.354 20.9041 14.3095 20.9383 14.2563C20.9899 14.2028 21.0419 14.1668 21.0942 14.1483C21.1465 14.1298 21.2165 14.1198 21.3041 14.1182C21.409 14.0988 21.5579 14.0874 21.7508 14.0839C21.8034 14.083 21.8562 14.0908 21.9091 14.1074C21.9617 14.1065 22.0055 14.1057 22.0406 14.1051C22.1107 14.1038 22.2607 14.1537 22.4906 14.2549C22.7201 14.3385 22.9499 14.4396 23.1801 14.5583C23.4102 14.6769 23.5261 14.7801 23.5276 14.8678C23.5483 15.0428 23.4893 15.1754 23.3506 15.2656C23.2291 15.3379 23.1254 15.4275 23.0396 15.5343C22.9197 15.6943 22.8001 15.8718 22.6808 16.0669C22.5787 16.2441 22.4944 16.4298 22.4277 16.624L22.3779 16.7827C22.309 16.8541 22.2483 16.8903 22.1957 16.8912C22.0904 16.8931 22.0543 16.8323 22.0872 16.709C22.084 16.5336 22.0987 16.3755 22.1313 16.2346C22.1635 16.0762 22.1873 15.9354 22.2027 15.8123C22.2352 15.6714 22.2504 15.5396 22.2482 15.4169C22.2633 15.2763 22.2606 15.1272 22.2402 14.9697C22.2393 14.9171 22.2213 14.8911 22.1862 14.8918C22.0284 14.8946 21.8806 14.9674 21.7428 15.1102C21.6051 15.253 21.4933 15.3777 21.4075 15.4845L21.2516 15.5926C21.1661 15.7169 21.0196 15.8598 20.812 16.0214L20.3188 16.3985C20.1976 16.4884 20.0254 16.6669 19.8022 16.934C19.5786 17.1836 19.4067 17.3796 19.2865 17.522C19.2868 17.5396 19.2256 17.5494 19.1028 17.5516L19.0765 17.5521L19.0507 17.5789L19.0516 17.6315C19.0876 17.6835 19.0712 17.7451 19.0023 17.8165C18.8996 17.9587 18.7197 18.1987 18.4627 18.5366C18.2056 18.8744 17.9573 19.2121 17.7178 19.5497C17.4779 19.8697 17.3417 20.1002 17.3092 20.2411C17.2425 20.4352 17.1842 20.6117 17.1345 20.7704C17.1022 20.9288 17.0969 21.1219 17.1185 21.3495C16.9954 21.3342 16.9076 21.327 16.855 21.3279C16.8202 21.3461 16.7941 21.3553 16.7766 21.3556C16.7243 21.3741 16.6631 21.384 16.5929 21.3852ZM23.451 21.2626C23.3283 21.2648 23.1961 21.2321 23.0546 21.1645C22.9131 21.0968 22.8149 21.0021 22.7601 20.8803L22.784 20.7483C22.8795 20.2029 23.0279 19.674 23.2293 19.1617C23.4306 18.6495 23.6144 18.1375 23.7806 17.6259C23.914 17.2376 24.0634 16.7613 24.2287 16.1971C24.394 15.6328 24.4727 15.1315 24.4649 14.6932C24.464 14.6406 24.463 14.588 24.4621 14.5354C24.4608 14.4652 24.451 14.404 24.4325 14.3517C24.3097 14.3539 24.1961 14.3735 24.0915 14.4104C23.9866 14.4298 23.8728 14.4407 23.75 14.4428L23.7237 14.4433C23.6361 14.4449 23.5913 14.3931 23.5894 14.2879C23.5885 14.2352 23.6224 14.1732 23.6913 14.1019C23.7602 14.0305 23.8648 13.9935 24.0051 13.991C24.058 14.0076 24.2072 14.0137 24.4527 14.0093C24.593 14.0068 24.786 14.0121 25.0318 14.0253C25.2773 14.0209 25.5057 14.0431 25.7171 14.092C25.946 14.1405 26.0795 14.2521 26.1177 14.4268C26.1371 14.5317 26.0881 14.7343 25.9707 15.0346C25.8705 15.317 25.7533 15.6261 25.6189 15.9618C25.4671 16.2977 25.3238 16.6248 25.1892 16.9429C25.1391 17.0841 25.089 17.2254 25.0389 17.3666C24.9885 17.4903 24.9641 17.5959 24.9656 17.6836L24.9661 17.7099L25.0173 17.6301C25.1197 17.4704 25.2222 17.3195 25.3249 17.1773C25.4452 17.0348 25.5393 16.9016 25.6072 16.7776C25.693 16.6708 25.8217 16.5107 25.9933 16.2971C26.1821 16.0657 26.3707 15.8255 26.5592 15.5766C26.7653 15.3273 26.9625 15.0783 27.151 14.8293C27.357 14.5801 27.5379 14.3927 27.6935 14.2671C27.7279 14.2314 27.7622 14.1869 27.7963 14.1337C27.848 14.0802 27.9 14.0442 27.9523 14.0257C28.0046 14.0072 28.0745 13.9972 28.1622 13.9956C28.2671 13.9762 28.416 13.9648 28.6089 13.9613C28.6615 13.9604 28.7143 13.9682 28.7672 13.9848C28.8198 13.9839 28.8636 13.9831 28.8987 13.9825C28.9688 13.9812 29.1188 14.0311 29.3486 14.1323C29.5782 14.2159 29.808 14.317 30.0381 14.4357C30.2683 14.5543 30.3841 14.6575 30.3857 14.7452C30.4064 14.9202 30.3474 15.0528 30.2086 15.143C30.0872 15.2153 29.9835 15.3049 29.8977 15.4117C29.7778 15.5717 29.6582 15.7492 29.5389 15.9443C29.4368 16.1215 29.3524 16.3072 29.2858 16.5013L29.236 16.6601C29.1671 16.7315 29.1063 16.7677 29.0537 16.7686C28.9485 16.7705 28.9124 16.7097 28.9452 16.5864C28.9421 16.411 28.9568 16.2529 28.9894 16.112C29.0216 15.9535 29.0454 15.8128 29.0608 15.6897C29.0933 15.5488 29.1085 15.417 29.1063 15.2943C29.1213 15.1537 29.1187 15.0046 29.0983 14.8471C29.0974 14.7945 29.0794 14.7685 29.0443 14.7692C28.8865 14.772 28.7387 14.8448 28.6009 14.9876C28.4632 15.1304 28.3514 15.2551 28.2656 15.3619L28.1096 15.4699C28.0242 15.5943 27.8776 15.7372 27.67 15.8988L27.1769 16.2759C27.0557 16.3658 26.8835 16.5443 26.6602 16.8114C26.4367 17.0609 26.2648 17.257 26.1445 17.3994C26.1449 17.417 26.0836 17.4268 25.9609 17.429L25.9346 17.4295L25.9088 17.4563L25.9097 17.5089C25.9457 17.5609 25.9293 17.6225 25.8604 17.6939C25.7577 17.8361 25.5778 18.0761 25.3207 18.414C25.0637 18.7518 24.8154 19.0895 24.5758 19.4271C24.336 19.7471 24.1998 19.9776 24.1672 20.1185C24.1005 20.3126 24.0423 20.489 23.9925 20.6478C23.9603 20.8062 23.955 20.9993 23.9766 21.2269C23.8535 21.2116 23.7657 21.2044 23.7131 21.2053C23.6783 21.2235 23.6522 21.2327 23.6346 21.233C23.5824 21.2515 23.5211 21.2614 23.451 21.2626ZM31.6825 20.7471C31.3669 20.7528 31.0239 20.6975 30.6535 20.5813C30.3006 20.4649 29.9904 20.2862 29.723 20.0454C29.4731 19.8044 29.3275 19.5088 29.2862 19.1587C29.2846 19.071 29.2831 18.9834 29.2815 18.8957C29.2975 18.8077 29.296 18.7288 29.2773 18.659C29.2763 18.6064 29.2228 18.5547 29.1166 18.504L29.0363 18.4265C28.9655 18.3927 28.8946 18.3501 28.8235 18.2987C28.7521 18.2298 28.7157 18.1516 28.7141 18.0639C28.7664 18.0454 28.8101 18.0359 28.8451 18.0352C28.9328 18.0337 29.0119 18.041 29.0823 18.0573C29.1703 18.0733 29.2494 18.0806 29.3195 18.0794C29.302 18.0797 29.3101 18.0445 29.3439 17.9737C29.3433 17.9386 29.3514 17.9034 29.3684 17.868C29.3849 17.8151 29.4019 17.7797 29.4191 17.7619C29.4366 17.7616 29.4618 17.6997 29.4947 17.5763C29.5273 17.4354 29.5521 17.3561 29.5694 17.3382C29.8014 16.5798 30.1231 15.9339 30.5345 15.4003C30.9632 14.8489 31.5521 14.4349 32.3014 14.1584C32.3713 14.1396 32.4325 14.1298 32.4851 14.1288C32.5549 14.11 32.6249 14.1 32.695 14.0988C32.8353 14.0962 33.0204 14.1456 33.2502 14.2467C33.4797 14.3303 33.6836 14.4494 33.8617 14.6041C34.0571 14.7409 34.165 14.8881 34.1853 15.0456C34.1866 15.1157 34.1877 15.1771 34.1886 15.2297C34.2071 15.282 34.217 15.3432 34.2182 15.4134C34.2201 15.5186 34.196 15.6418 34.1459 15.783L33.9895 15.8647C33.9557 15.9355 33.9216 15.9887 33.8871 16.0244L33.7326 16.2114C33.5948 16.3541 33.5439 16.4515 33.58 16.5035L33.5278 16.5307C33.5278 16.5307 33.528 16.5395 33.5283 16.557C33.5283 16.557 33.5195 16.5572 33.502 16.5575L33.5278 16.5307L33.502 16.5575L33.5025 16.5838L33.3714 16.6125C33.3022 16.6663 33.2419 16.7288 33.1906 16.7999C33.1389 16.8534 33.0874 16.9157 33.0361 16.9868C32.7781 17.2721 32.4405 17.5237 32.0235 17.7416C31.6061 17.942 31.2234 18.1243 30.8756 18.2883C30.8233 18.3068 30.7448 18.3345 30.6403 18.3715C30.5529 18.3906 30.4922 18.4268 30.458 18.48C30.3895 18.5689 30.3477 18.6837 30.3326 18.8243C30.3176 18.9649 30.3112 19.0965 30.3134 19.2193C30.3522 19.4291 30.4084 19.6298 30.482 19.8214C30.5731 20.0127 30.7502 20.106 31.0132 20.1013L31.2499 20.0971C31.3376 20.0955 31.4251 20.0852 31.5125 20.0661C31.6174 20.0467 31.7223 20.0272 31.8272 20.0078L32.0094 19.8993L32.0362 19.9252C32.1408 19.8882 32.3235 19.806 32.5843 19.6786C32.8451 19.5511 33.0972 19.4238 33.3405 19.2967C33.5835 19.152 33.7308 19.0529 33.7824 18.9994L33.8083 18.9726L33.8336 18.9195L33.9111 18.8392C34.2227 18.6056 34.5261 18.4073 34.8214 18.2441C35.1163 18.0634 35.4016 17.8303 35.6771 17.5447L35.7307 17.5964L35.8096 17.595C35.7942 17.7181 35.7521 17.8153 35.6832 17.8867C35.614 17.9405 35.5364 18.0121 35.4503 18.1013L35.3737 18.2342C35.1692 18.5712 34.8508 18.9101 34.4184 19.2511C34.0035 19.5918 33.6228 19.8793 33.2762 20.1135C33.1547 20.1858 33.0335 20.2757 32.9126 20.3831C32.7914 20.473 32.6524 20.5456 32.4955 20.601C32.199 20.694 31.928 20.7427 31.6825 20.7471ZM30.7826 17.5007C30.8878 17.4988 30.9579 17.4976 30.993 17.4969C31.0453 17.4785 31.1151 17.4597 31.2025 17.4406C31.5497 17.2414 31.87 17.0077 32.1634 16.7393C32.4743 16.4706 32.7677 16.2023 33.0436 15.9343C33.0764 15.8109 33.1622 15.7041 33.301 15.6139L33.4047 15.5331C33.4392 15.4974 33.4649 15.4619 33.4818 15.4265C33.5162 15.3908 33.5331 15.3554 33.5325 15.3204C33.5497 15.3025 33.5399 15.2413 33.5029 15.1367L33.4742 15.0057L33.4733 14.9531C33.4204 14.9365 33.3501 14.929 33.2624 14.9305C33.1406 14.9853 33.0193 15.0664 32.8984 15.1738C32.7776 15.2813 32.6471 15.345 32.5072 15.365C32.4389 15.4715 32.2924 15.6144 32.0676 15.7938C31.9467 15.9012 31.8258 16.0087 31.705 16.1161C31.6013 16.2056 31.5323 16.2682 31.4979 16.3039C31.3773 16.4289 31.2317 16.6244 31.0611 16.8906C30.8901 17.1392 30.7973 17.3426 30.7826 17.5007ZM36.5187 20.1608C36.396 20.1629 36.246 20.113 36.0688 20.0109C35.9091 19.9085 35.8192 19.7874 35.7992 19.6474C35.7757 19.3146 35.8211 18.9103 35.9354 18.4347C36.0669 17.9412 36.2331 17.4296 36.4341 16.8998C36.6351 16.37 36.8456 15.8751 37.0654 15.4151C37.2848 14.9376 37.4708 14.5484 37.6233 14.2474C37.7078 14.0705 37.775 13.9027 37.8248 13.7439C37.8918 13.5673 37.9853 13.399 38.1052 13.239C38.2455 13.2365 38.4214 13.2685 38.6331 13.3348C38.8623 13.4009 39.0655 13.485 39.2428 13.587C39.4375 13.6888 39.5362 13.8098 39.5387 13.9501C39.5415 14.1079 39.4482 14.285 39.2587 14.4813C39.0865 14.6598 38.9489 14.8113 38.8459 14.936C38.4852 15.3634 38.1162 15.8173 37.7389 16.2976C37.3788 16.7601 37.0983 17.2562 36.8973 17.786C36.8468 17.9097 36.8052 18.0332 36.7723 18.1566C36.757 18.2797 36.7152 18.3944 36.6469 18.5009C36.6303 18.5538 36.605 18.6069 36.5708 18.6601C36.5367 18.7133 36.5203 18.775 36.5215 18.8452L36.5004 19.135C36.6379 18.9746 36.8525 18.7165 37.1443 18.3604C37.4537 18.0041 37.7803 17.6299 38.1241 17.2379C38.4851 16.828 38.8207 16.4712 39.131 16.1675C39.4413 15.8637 39.6575 15.6932 39.7796 15.656C39.8492 15.6196 39.919 15.6009 39.9891 15.5996C40.3047 15.594 40.6047 15.6938 40.889 15.8992C41.1906 16.0868 41.3525 16.3119 41.3747 16.5746C41.376 16.6448 41.3605 16.7591 41.3282 16.9175C41.3135 17.0756 41.2982 17.1987 41.2822 17.2867C41.2678 17.4623 41.2449 17.6557 41.2136 17.8667C41.1995 18.0599 41.1944 18.2617 41.1981 18.4721C41.2038 18.7878 41.2612 19.0586 41.3705 19.2847C41.4795 19.4932 41.6743 19.595 41.9548 19.59C42.0243 19.5537 42.1028 19.5259 42.1901 19.5068C42.2947 19.4699 42.3821 19.4508 42.4522 19.4495C42.5399 19.448 42.6022 19.4995 42.6391 19.6041C42.641 19.7093 42.5812 19.798 42.4597 19.8704C42.3382 19.9427 42.2337 19.9796 42.146 19.9812L41.8041 19.9873C41.6813 19.9895 41.5673 19.9916 41.4621 19.9934C41.3566 19.9778 41.2509 19.9534 41.1451 19.9202C40.9691 19.8882 40.8011 19.8123 40.6411 19.6924C40.4811 19.5725 40.3552 19.3993 40.2635 19.1729C40.1711 18.9115 40.0881 18.6849 40.0145 18.4933C39.9585 18.3014 39.928 18.0651 39.9229 17.7846L39.9098 17.0481C39.9076 16.9254 39.9055 16.8114 39.9037 16.7062C39.9193 16.6007 39.9179 16.5217 39.8994 16.4695C39.7426 16.5249 39.5783 16.6594 39.4067 16.8729C39.2352 17.0865 39.0979 17.2556 38.9948 17.3802C38.926 17.4516 38.8654 17.4965 38.8131 17.515L38.7356 17.5953C38.6667 17.6667 38.5809 17.7735 38.4782 17.9156C38.3752 18.0403 38.2806 18.1472 38.1945 18.2364C38.1429 18.29 38.0997 18.3258 38.0649 18.344L37.9353 18.4516L37.7544 18.639C37.6527 18.8337 37.5331 19.0113 37.3956 19.1716C37.2754 19.3141 37.1556 19.4828 37.0363 19.6779C37.0019 19.7136 36.9848 19.7402 36.9851 19.7578L36.9344 19.8639C36.8834 19.9525 36.832 20.0236 36.7804 20.0771C36.7287 20.1307 36.6415 20.1586 36.5187 20.1608ZM45.2775 22.3458C45.1547 22.348 44.9783 22.2898 44.7482 22.1711C44.5359 22.0696 44.3852 21.9846 44.2963 21.9161C43.9929 21.6233 43.8359 21.1788 43.8252 20.5826C43.8174 20.1443 43.8707 19.696 43.9853 19.2379C44.0996 18.7623 44.2321 18.3214 44.3827 17.9153C44.5329 17.4917 44.6587 17.1649 44.7598 16.9351C44.7939 16.8819 44.8277 16.8111 44.8612 16.7228C44.8944 16.617 44.945 16.502 45.0129 16.378C45.0968 16.1661 45.1985 15.9625 45.3177 15.7674L44.9777 15.8788L44.8462 15.8811C44.6727 15.9895 44.4813 16.0718 44.2718 16.1282C44.0795 16.1667 43.8874 16.214 43.6955 16.27C43.486 16.3264 43.2858 16.4089 43.0948 16.5176C42.9034 16.6087 42.7121 16.6998 42.5208 16.7909C42.5211 16.8085 42.495 16.8177 42.4424 16.8187C42.3547 16.8202 42.275 16.7778 42.2033 16.6914C42.1313 16.5874 42.0947 16.5004 42.0934 16.4302C42.0925 16.3776 42.1966 16.3144 42.4057 16.2405C42.597 16.1494 42.8322 16.0574 43.1112 15.9648C43.4074 15.8542 43.6776 15.7617 43.9219 15.6872C44.1833 15.5948 44.3577 15.539 44.4451 15.5199C44.5847 15.4824 44.7068 15.4451 44.8114 15.4081C44.916 15.3712 45.0206 15.3342 45.1252 15.2973L45.1247 15.271L45.2299 15.2691C45.3702 15.2666 45.4749 15.2384 45.5441 15.1846C45.6957 14.831 45.933 14.3708 46.2561 13.8037C46.5789 13.2191 46.9381 12.704 47.3335 12.2584C47.4197 12.1692 47.4616 12.0632 47.4594 11.9404C47.4748 11.8174 47.5253 11.7025 47.6111 11.5957C47.7489 11.4529 47.8608 11.3369 47.9469 11.2476C48.0506 11.1581 48.1891 11.0591 48.3626 10.9508C48.4681 10.9665 48.6446 11.0247 48.8919 11.1255C49.1393 11.2263 49.3693 11.3362 49.5819 11.4552C49.812 11.5739 49.9281 11.6858 49.9299 11.791C49.9309 11.8436 49.8449 11.9416 49.6721 12.0851C49.4989 12.2109 49.317 12.337 49.1263 12.4632C48.9356 12.5893 48.8057 12.6794 48.7365 12.7332L48.5533 12.7891C48.346 12.9682 48.1564 13.1558 47.9845 13.3518C47.8126 13.5478 47.6318 13.7352 47.4421 13.914C47.3387 14.0211 47.2533 14.1454 47.1856 14.287C47.1352 14.4107 47.0584 14.526 46.955 14.6331L46.9574 14.7646C46.9054 14.8007 46.8624 14.8453 46.8282 14.8985C47.301 14.855 47.6696 14.8659 47.9339 14.9314C48.2154 14.9789 48.4986 15.123 48.7835 15.3634C48.8192 15.3979 48.8375 15.4414 48.8385 15.494C48.8394 15.5466 48.8136 15.5734 48.761 15.5743L48.6558 15.5762L48.6553 15.5499L48.6295 15.5767C48.2068 15.479 47.8025 15.4336 47.4167 15.4405C47.2589 15.4433 47.11 15.4548 46.9701 15.4748C46.8301 15.4948 46.7077 15.5146 46.6028 15.534C46.6028 15.534 46.5516 15.6138 46.4492 15.7735C46.3465 15.9157 46.244 16.0666 46.1416 16.2263C46.0389 16.3685 45.9878 16.4571 45.9885 16.4921C45.9543 16.5454 45.8864 16.6694 45.7846 16.8641C45.7004 17.0586 45.6163 17.2618 45.5324 17.4738C45.4817 17.5799 45.431 17.6861 45.3803 17.7922C45.3468 17.8805 45.3131 17.9601 45.2793 18.0308L45.152 18.2699C45.1542 18.3927 45.1302 18.5246 45.0801 18.6659C45.0473 18.7892 45.0142 18.9038 44.9811 19.0097L44.9548 19.0101L44.9557 19.0627C44.9576 19.1679 44.9333 19.2824 44.8829 19.4061C44.8497 19.5119 44.8164 19.609 44.7829 19.6973C44.7024 20.1021 44.6653 20.4799 44.6716 20.8306C44.6731 20.9183 44.6747 21.006 44.6763 21.0936C44.6778 21.1813 44.6882 21.2688 44.7073 21.3562C44.7445 21.4783 44.7815 21.5829 44.8181 21.6699C44.8723 21.7567 44.9525 21.8254 45.0586 21.8761C45.1112 21.8752 45.1552 21.8832 45.1906 21.9001L45.4015 21.9226C45.6125 21.9539 45.7187 22.0046 45.7199 22.0748C45.7221 22.1975 45.662 22.2688 45.5396 22.2885C45.435 22.3254 45.3476 22.3445 45.2775 22.3458ZM50.7689 20.7216C50.2604 20.7307 49.8639 20.6238 49.5792 20.4008C49.3124 20.1951 49.1235 19.9266 49.0123 19.5954C48.9008 19.2465 48.8243 18.8883 48.7826 18.5207C48.7616 18.3282 48.6804 18.1981 48.5388 18.1304C48.4856 18.0963 48.4238 18.0711 48.3533 18.0548C48.3001 18.0207 48.2728 17.9686 48.2716 17.8984C48.3392 17.7569 48.4425 17.6498 48.5816 17.5771C48.7203 17.487 48.807 17.4328 48.8418 17.4146C48.8415 17.3971 48.8411 17.3796 48.8408 17.362C48.8577 17.3266 48.8659 17.2914 48.8653 17.2563L48.9897 16.8595L49.1616 16.1723C49.2108 15.9785 49.251 15.7761 49.2823 15.565C49.3308 15.3361 49.3881 15.1071 49.4542 14.8779C49.5199 14.6311 49.5943 14.3755 49.6773 14.1109C49.7602 13.8463 49.8604 13.5638 49.9778 13.2636C50.1175 13.226 50.187 13.1897 50.1864 13.1546C50.203 13.1017 50.1928 13.0229 50.1558 12.9183C50.1555 12.9008 50.1465 12.8834 50.1286 12.8662C50.1283 12.8487 50.128 12.8311 50.1277 12.8136C50.1258 12.7084 50.1588 12.5938 50.2268 12.4698C50.3122 12.3455 50.389 12.2213 50.4569 12.0973C50.5421 11.9555 50.6275 11.8312 50.7133 11.7244C50.7988 11.6001 50.8502 11.529 50.8674 11.5112C51.3123 10.8893 51.7754 10.3022 52.2567 9.74983C52.7555 9.19716 53.3521 8.72167 54.0466 8.32337C54.1336 8.28673 54.2032 8.25041 54.2551 8.2144C54.3243 8.16054 54.4026 8.12406 54.49 8.10496L54.4632 8.07913C54.4983 8.0785 54.5333 8.07787 54.5684 8.07725C54.6032 8.05908 54.6381 8.04969 54.6731 8.04906C54.8134 8.04655 55.0423 8.09508 55.3598 8.19465C55.6773 8.29422 55.969 8.42055 56.2348 8.57366C56.5182 8.72646 56.6616 8.8993 56.6651 9.09218C56.6685 9.28507 56.5685 9.57627 56.365 9.9658C56.1611 10.3378 55.9055 10.7546 55.598 11.2161C55.2902 11.6601 54.9649 12.1044 54.622 12.5491C54.2967 12.9934 53.988 13.3848 53.6959 13.7233C53.4213 14.0615 53.2151 14.302 53.0773 14.4447C53.0084 14.5161 52.9394 14.5788 52.8702 14.6326C52.801 14.6865 52.7319 14.7491 52.663 14.8205C52.5253 14.9633 52.3877 15.1148 52.2502 15.2752C52.1303 15.4352 51.9927 15.5867 51.8374 15.7298C51.6132 15.9443 51.3281 16.1862 50.9821 16.4555C50.6533 16.7069 50.3768 16.9399 50.1526 17.1544C50.0838 17.2258 50.0323 17.2881 49.9981 17.3413C49.9815 17.3943 49.9476 17.4563 49.8962 17.5273C49.8276 17.6163 49.7783 17.8013 49.7483 18.0825C49.7354 18.3458 49.739 18.5475 49.7591 18.6874C49.7794 18.8449 49.8269 19.0458 49.9014 19.29C49.9756 19.5167 50.0846 19.7253 50.2283 19.9157C50.372 20.106 50.5491 20.1993 50.7595 20.1956C50.8647 20.1937 50.9521 20.1746 51.0216 20.1383C51.1084 20.0841 51.1952 20.0387 51.2823 20.0021C51.7858 19.7124 52.2102 19.4154 52.5556 19.111C52.9182 18.7888 53.2886 18.4139 53.6668 17.9861C53.8046 17.8433 53.9336 17.7007 54.0538 17.5582C54.1913 17.3979 54.3289 17.2464 54.4667 17.1036C54.5531 17.0319 54.6394 16.9514 54.7255 16.8622C54.8288 16.7551 54.942 16.7092 55.065 16.7245C55.0513 16.9353 54.9838 17.0856 54.8626 17.1754C54.7587 17.2475 54.6641 17.3544 54.5789 17.4962C54.4941 17.6556 54.4091 17.8062 54.3239 17.9481C54.2387 18.0899 54.1627 18.2491 54.0956 18.4257C54.0618 18.4965 54.0105 18.5676 53.9416 18.639C53.8727 18.7104 53.8126 18.7816 53.7612 18.8527C53.4866 19.1909 53.194 19.5031 52.8834 19.7893C52.5725 20.0579 52.208 20.2749 51.79 20.4403C51.6159 20.5135 51.4504 20.5779 51.2936 20.6333C51.1367 20.6887 50.9618 20.7182 50.7689 20.7216ZM49.7487 16.6354L49.775 16.6349C50.8099 15.6517 51.809 14.6341 52.7725 13.5819C53.7359 12.5298 54.5577 11.4013 55.2377 10.1964C55.2719 10.1432 55.3397 10.0104 55.4411 9.79814C55.5426 9.58584 55.6265 9.37386 55.6928 9.16219C55.7768 8.9502 55.7744 8.81869 55.6858 8.76765C55.4942 8.84124 55.3118 8.94097 55.1386 9.06685C54.983 9.19242 54.8274 9.31798 54.6718 9.44355C54.6198 9.47956 54.559 9.51572 54.4895 9.55205C54.42 9.58837 54.3682 9.63315 54.3341 9.68638C54.1963 9.82916 54.0585 9.97195 53.9208 10.1147C53.783 10.2575 53.6452 10.4003 53.5074 10.5431C53.318 10.7394 53.1377 10.9531 52.9664 11.1842C52.8126 11.415 52.6501 11.6459 52.4789 11.877C52.085 12.4103 51.7601 12.8809 51.5043 13.2889C51.2482 13.6794 50.9586 14.1581 50.6354 14.7252C50.5847 14.8313 50.4916 15.0172 50.356 15.2827C50.2204 15.5482 50.0936 15.8136 49.9756 16.0788C49.8572 16.3265 49.7816 16.512 49.7487 16.6354ZM52.5048 28.2417C52.0665 28.2495 51.7569 28.106 51.5763 27.811C51.3959 27.5336 51.3027 27.2283 51.2968 26.8952C51.2905 26.5445 51.3458 26.2014 51.4626 25.8661C51.5794 25.5307 51.7229 25.2212 51.8932 24.9375C52.0291 24.6895 52.1736 24.4326 52.3267 24.1668C52.4623 23.9012 52.6157 23.6529 52.787 23.4218C53.1975 22.8357 53.7303 22.221 54.3853 21.5778C55.0582 20.9519 55.6891 20.4319 56.2781 20.018C56.5727 19.8198 56.9286 19.6117 57.3457 19.3938C57.78 19.158 58.1624 18.967 58.4931 18.8207C58.8234 18.6569 58.9886 18.5751 58.9886 18.5751C59.1455 18.5196 59.3019 18.4379 59.4578 18.3299C59.6316 18.2391 59.7623 18.1929 59.85 18.1913C59.8672 18.1735 59.8844 18.1556 59.9016 18.1378C59.9189 18.1199 59.9361 18.1021 59.9533 18.0842C60.0735 17.9418 60.1487 17.7299 60.1787 17.4487C60.2088 17.1676 60.2573 16.9387 60.3243 16.7621C60.3578 16.6738 60.383 16.6119 60.3999 16.5765C60.4341 16.5233 60.4502 16.4441 60.4483 16.3389L60.4455 16.1811C60.4439 16.0934 60.4513 16.0143 60.4676 15.9439C60.4838 15.8734 60.5001 15.803 60.5164 15.7325C60.533 15.6796 60.5397 15.5655 60.5366 15.3901C60.4145 15.4274 60.3105 15.4994 60.2247 15.6062C60.1565 15.7126 60.0793 15.8105 59.9932 15.8997C59.8379 16.0428 59.6916 16.2033 59.5545 16.3812C59.4349 16.5587 59.2974 16.719 59.1421 16.8621C58.9007 17.0945 58.5732 17.4161 58.1596 17.8269C57.746 18.2377 57.314 18.605 56.8638 18.9288C56.4135 19.2526 56.013 19.4176 55.6623 19.4238C55.4344 19.4279 55.1785 19.3448 54.8949 19.1745C54.6112 19.0041 54.4151 18.8322 54.3068 18.6588L54.3059 18.6062C54.3049 18.5536 54.2952 18.5011 54.2767 18.4488C54.258 18.379 54.2481 18.3178 54.2471 18.2652C54.2412 17.932 54.3135 17.5624 54.4641 17.1562C54.6147 16.7501 54.7921 16.3698 54.9962 16.0154C55.2004 15.6609 55.3887 15.4032 55.5613 15.2423L55.6383 15.1357C55.7068 15.0467 55.7668 14.9667 55.8182 14.8956C55.887 14.8243 55.9559 14.7529 56.0248 14.6815C56.1623 14.5211 56.3002 14.3871 56.4386 14.2794C56.5945 14.1714 56.7689 14.1156 56.9618 14.1122C57.032 14.1109 57.1818 14.1521 57.4113 14.2357C57.6408 14.3193 57.8617 14.4118 58.074 14.5133C58.286 14.5972 58.3926 14.6742 58.3939 14.7444C58.4127 14.8142 58.3782 14.8499 58.2906 14.8514L58.2117 14.8529L58.1586 14.8275C58.141 14.8278 58.1235 14.8281 58.106 14.8284C58.0881 14.8112 58.0617 14.8029 58.0266 14.8035C57.8513 14.8067 57.6084 14.9601 57.2981 15.2638C57.0051 15.5497 56.7046 15.9147 56.3968 16.3587C56.0887 16.7852 55.8331 17.2019 55.6299 17.609C55.4264 17.9985 55.3265 18.2985 55.3302 18.5089C55.3318 18.5966 55.3677 18.6398 55.4378 18.6385C55.6131 18.6354 55.7962 18.5707 55.9868 18.4446C56.1951 18.318 56.3685 18.2097 56.5072 18.1195L56.5599 18.1186C57.3386 17.5258 58.0298 16.9434 58.6335 16.3713C58.9613 16.0673 59.2891 15.7632 59.617 15.4592C59.9448 15.1551 60.2723 14.8336 60.5995 14.4944L60.7545 14.3338L60.909 14.1469C61.012 14.0222 61.1327 13.9061 61.2711 13.7984C61.4296 13.8306 61.6585 13.8791 61.9578 13.9439C62.2747 14.0084 62.4441 14.1633 62.466 14.4084C62.4676 14.4961 62.4516 14.5841 62.4181 14.6724C62.4018 14.7429 62.3857 14.8221 62.3697 14.9101C62.3553 15.0857 62.3322 15.2615 62.3002 15.4375C62.2683 15.6135 62.2364 15.7895 62.2044 15.9654C62.1888 16.071 62.1556 16.1768 62.1049 16.283C62.0717 16.3888 62.0385 16.4946 62.0053 16.6005C61.9724 16.7238 61.9485 16.8558 61.9335 16.9964C61.936 17.1367 61.9122 17.2774 61.8621 17.4186C61.8455 17.4716 61.8034 17.5688 61.7357 17.7103C61.6678 17.8343 61.6343 17.9226 61.6352 17.9752C61.6355 17.9928 61.6708 18.0009 61.7409 17.9996C61.7935 17.9987 61.8373 17.9979 61.8724 17.9973C61.9247 17.9788 61.9596 17.9694 61.9772 17.9691C62.398 17.9616 62.7775 18.0951 63.1157 18.3697C63.1511 18.3866 63.1689 18.4039 63.1692 18.4214C63.1868 18.4211 63.2043 18.4208 63.2218 18.4205L63.2228 18.4731C63.2243 18.5607 63.173 18.6318 63.0687 18.6863C62.9644 18.7408 62.8937 18.707 62.8564 18.5848C62.8379 18.5326 62.7936 18.507 62.7235 18.5083C62.653 18.492 62.5915 18.4843 62.5389 18.4853C62.3636 18.4884 62.1192 18.5542 61.8057 18.6826C61.5095 18.7931 61.3721 18.9534 61.3934 19.1635C61.3066 19.2177 61.1778 19.3691 61.0068 19.6177C60.8534 19.866 60.7687 20.0342 60.7527 20.1222C60.7365 20.1926 60.7289 20.2629 60.7302 20.333C60.7315 20.4032 60.6976 20.4739 60.6288 20.5453C60.5599 20.6167 60.4998 20.688 60.4484 20.7591C60.4146 20.8298 60.3989 20.9353 60.4014 21.0756C60.2969 21.1126 60.1846 21.211 60.0647 21.3711C59.9448 21.5311 59.8945 21.6635 59.9139 21.7684L59.8355 21.7961L59.89 21.9004C59.7506 21.9555 59.6817 22.0269 59.6833 22.1146C59.5787 22.1515 59.4926 22.2408 59.425 22.3823C59.3749 22.5235 59.2979 22.6301 59.1939 22.7021L59.1958 22.8074L58.9873 22.9163L59.015 22.9948C58.9458 23.0486 58.8766 23.1025 58.8074 23.1563C58.756 23.2274 58.7047 23.2985 58.6533 23.3696C58.5844 23.441 58.5242 23.5034 58.4725 23.557C58.4384 23.6102 58.4041 23.6547 58.3697 23.6904L58.3715 23.7956C58.3192 23.8141 58.2937 23.8584 58.295 23.9285C58.2076 23.9476 58.1295 23.9929 58.0606 24.0642L57.9314 24.1981L57.9587 24.2502C57.9067 24.2863 57.8547 24.3223 57.8028 24.3583C57.7683 24.394 57.743 24.447 57.7267 24.5175L57.6478 24.5189C57.597 24.6251 57.5113 24.7318 57.3904 24.8392C57.2874 24.9639 57.1928 25.0708 57.1067 25.16L56.6694 25.7204C56.5314 25.8456 56.3756 25.9624 56.2021 26.0708C56.0462 26.1788 55.8993 26.3042 55.7616 26.447C55.7096 26.483 55.6578 26.5278 55.6061 26.5813C55.572 26.6346 55.5291 26.6879 55.4774 26.7415C55.4085 26.8129 55.3132 26.876 55.1914 26.9308C55.0874 27.0028 54.9924 27.0834 54.9063 27.1727C54.6292 27.3706 54.2649 27.5963 53.8134 27.85C53.3443 28.1039 52.9081 28.2345 52.5048 28.2417ZM53.1478 27.4146C53.2349 27.3779 53.3653 27.3142 53.5391 27.2234C53.7131 27.1501 53.8695 27.0684 54.0083 26.9782C54.1645 26.8877 54.2422 26.8162 54.2412 26.7636C54.4667 26.6192 54.6653 26.449 54.8372 26.253C55.027 26.0742 55.208 25.8956 55.3802 25.7171C55.5699 25.5383 55.7597 25.3595 55.9494 25.1807C56.1392 25.0019 56.3112 24.8147 56.4656 24.619C56.5683 24.4768 56.6622 24.3348 56.7474 24.193C56.8501 24.0508 56.9529 23.9174 57.056 23.7928C57.1928 23.5974 57.3384 23.4019 57.4927 23.2062C57.665 23.0277 57.8195 22.8407 57.9563 22.6453C58.1107 22.4496 58.2472 22.2367 58.3659 22.0066C58.5021 21.7761 58.6384 21.5544 58.7749 21.3415C58.8601 21.1996 58.9539 21.0489 59.0563 20.8892C59.1762 20.7292 59.2698 20.5696 59.3371 20.4106C59.3713 20.3573 59.3965 20.2955 59.4127 20.225C59.4469 20.1718 59.4808 20.1098 59.5147 20.039C59.5826 19.9151 59.6758 19.7292 59.7941 19.4815C59.9297 19.216 59.9964 19.0219 59.9942 18.8991C59.7856 19.0081 59.542 19.1177 59.2634 19.2279C59.1243 19.3006 58.9853 19.3732 58.8463 19.4459C58.7245 19.5007 58.6639 19.5456 58.6645 19.5807C58.5772 19.5998 58.3683 19.6912 58.038 19.855C57.7252 20.0184 57.4125 20.1906 57.1 20.3716C56.7875 20.5526 56.5882 20.6877 56.5021 20.777C56.1734 21.0284 55.8537 21.2972 55.5431 21.5834C55.25 21.8693 54.9569 22.1552 54.6638 22.4411C54.595 22.5125 54.5348 22.5837 54.4835 22.6548C54.4321 22.7259 54.3809 22.8057 54.3299 22.8943C54.313 22.9297 54.2872 22.9565 54.2524 22.9747C54.2355 23.01 54.2186 23.0454 54.2017 23.0808C54.1672 23.1165 54.0988 23.2142 53.9964 23.3739C53.8941 23.5336 53.8004 23.6931 53.7156 23.8525C53.6307 24.0119 53.58 24.118 53.5634 24.171C53.4084 24.3316 53.229 24.5979 53.0252 24.9699C52.8213 25.3419 52.6776 25.6426 52.594 25.8722L52.4174 26.2963C52.3661 26.3674 52.342 26.4906 52.3451 26.6659C52.3307 26.8416 52.3245 26.982 52.3263 27.0872C52.3467 27.2447 52.4098 27.3401 52.5156 27.3733C52.6218 27.424 52.8325 27.4378 53.1478 27.4146Z" fill="#C53333" style="fill:#C53333;fill:color(display-p3 0.7725 0.2000 0.2000);fill-opacity:1;"/>
<path d="M5.4187 39.4701C5.30457 39.5916 5.19045 39.7131 5.07633 39.8346C5.32789 40.0624 5.57946 40.2903 5.83102 40.5181C5.94065 40.3925 6.05028 40.2669 6.15992 40.1414C6.34943 39.9243 6.53786 39.707 6.72564 39.4884C10.023 35.6826 13.1203 31.3017 13.9547 26.2028L13.5791 26.2849C13.6434 26.3717 13.7077 26.4586 13.7719 26.5455C13.9424 26.7759 14.1129 27.0063 14.2833 27.2367C14.3198 27.286 14.3563 27.3353 14.3928 27.3847C14.4928 27.3135 14.5928 27.2423 14.6929 27.1711C14.6582 27.1204 14.6235 27.0698 14.5888 27.0191C14.4268 26.7827 14.2648 26.5463 14.1029 26.3098C14.0418 26.2207 13.9807 26.1315 13.9197 26.0424L13.5441 26.1245C12.5432 31.0745 9.40122 35.1933 6.00226 38.844C5.80871 39.0535 5.61434 39.2618 5.4187 39.4701Z" fill="#C53333" style="fill:#C53333;fill:color(display-p3 0.7725 0.2000 0.2000);fill-opacity:1;"/>
</svg>
