<svg width="99" height="42" viewBox="0 0 99 42" fill="none" xmlns="http://www.w3.org/2000/svg">
<path d="M3.0469 22.0688C2.71374 22.0747 2.33518 21.9938 1.91121 21.826C1.48755 21.6757 1.17678 21.462 0.978877 21.1849C0.906858 21.0809 0.86114 20.9765 0.841724 20.8716C0.822308 20.7667 0.803049 20.6706 0.783947 20.5832C0.760143 20.2328 0.764051 19.9609 0.795672 19.7674C0.82698 19.5563 0.884747 19.3536 0.968972 19.1591C1.0532 18.9647 1.14541 18.7263 1.2456 18.4438C1.26219 18.3909 1.33077 18.302 1.45131 18.177C1.57186 18.0521 1.69241 17.9272 1.81296 17.8022C1.95073 17.6594 2.03668 17.5614 2.07081 17.5082C2.1566 17.4014 2.22502 17.3037 2.27605 17.2151C2.34463 17.1262 2.44874 17.0629 2.58839 17.0254C2.62315 17.0072 2.64929 16.998 2.66683 16.9976C2.70189 16.997 2.72804 16.9878 2.74526 16.9699C2.81258 16.8109 2.88929 16.6867 2.9754 16.5975C3.07873 16.4904 3.19098 16.3919 3.31215 16.302C3.41579 16.2125 3.62417 16.0947 3.93729 15.9488C4.26794 15.8026 4.49464 15.7284 4.61739 15.7262C4.70506 15.7246 4.78428 15.7407 4.85505 15.7745C4.94335 15.808 5.03133 15.824 5.11901 15.8224L5.19744 15.7947C5.21623 15.8646 5.28747 15.9247 5.41115 15.9751C5.53515 16.043 5.7033 16.1277 5.91559 16.2292C6.14543 16.3303 6.27037 16.4509 6.29041 16.5908C6.29135 16.6434 6.25816 16.7493 6.19084 16.9083C6.14106 17.0671 6.06482 17.2175 5.96212 17.3597C5.87695 17.5015 5.79069 17.582 5.70333 17.6011C5.70176 17.5134 5.70051 17.4433 5.69957 17.3907C5.71616 17.3378 5.7326 17.2761 5.74888 17.2056C5.74794 17.153 5.74715 17.1092 5.74653 17.0741C5.76312 17.0212 5.77095 16.9685 5.77001 16.9159C5.75091 16.8285 5.71443 16.7502 5.66057 16.681C5.60671 16.6118 5.53594 16.578 5.44827 16.5796C5.22032 16.5836 4.95918 16.6936 4.66485 16.9093C4.37052 17.125 4.09419 17.3668 3.83588 17.6345C3.57724 17.8847 3.37935 18.0987 3.24221 18.2766C2.98421 18.5618 2.76127 18.8465 2.5734 19.1305C2.40307 19.4142 2.27752 19.7497 2.19674 20.137C2.1814 20.2601 2.16606 20.3831 2.15072 20.5062C2.15291 20.6289 2.15526 20.7604 2.15777 20.9007C2.19378 20.9527 2.21241 21.0137 2.21367 21.0839C2.23246 21.1537 2.25986 21.2146 2.29587 21.2666C2.33125 21.2835 2.34925 21.3095 2.34988 21.3445C2.36804 21.3793 2.38605 21.4053 2.4039 21.4225L2.43114 21.4746L2.43161 21.5009L2.64203 21.4972C2.81737 21.4941 2.96611 21.4739 3.08822 21.4366C3.21034 21.3993 3.33261 21.3708 3.45504 21.3511C3.54209 21.3145 3.62929 21.2866 3.71665 21.2675C3.82123 21.2305 3.92613 21.2111 4.03134 21.2092C4.13498 21.1197 4.2477 21.0475 4.3695 20.9927C4.49099 20.9204 4.61264 20.8568 4.73444 20.802L4.7335 20.7494C4.87409 20.7644 5.00482 20.7183 5.12568 20.6108C5.26408 20.5031 5.38541 20.422 5.48968 20.3675C5.8889 20.1324 6.27059 19.8975 6.63475 19.663C6.9989 19.4285 7.34505 19.1679 7.6732 18.8814C7.72517 18.8454 7.84619 18.7468 8.03625 18.5855C8.22632 18.4243 8.33888 18.3433 8.37395 18.3427C8.37395 18.3427 8.39117 18.3248 8.42561 18.2891C8.56746 18.3743 8.63917 18.4607 8.64073 18.5484C8.64261 18.6536 8.59189 18.7598 8.48856 18.8669C8.38524 18.9739 8.29021 19.0546 8.20347 19.1087C8.13396 19.1451 8.0646 19.1902 7.99541 19.244C7.94343 19.28 7.89145 19.316 7.83947 19.352C7.76996 19.3884 7.70061 19.4335 7.63141 19.4873C7.57943 19.5233 7.53638 19.5679 7.50225 19.6212C7.46843 19.6919 7.42569 19.7541 7.37403 19.8076C7.3399 19.8609 7.27916 19.897 7.1918 19.9161L7.16643 19.9692C7.04494 20.0416 6.92361 20.1227 6.80244 20.2125C6.68095 20.2849 6.55961 20.366 6.43844 20.4558C6.36924 20.5097 6.31711 20.5369 6.28204 20.5376C6.09072 20.6287 5.89127 20.755 5.68367 20.9166C5.52774 21.0246 5.3895 21.1411 5.26895 21.266C5.14809 21.3735 4.99137 21.4376 4.7988 21.4586C4.76593 21.582 4.67951 21.6537 4.53954 21.6737C4.41711 21.6935 4.31237 21.7217 4.22533 21.7583C3.86054 21.9578 3.46774 22.0613 3.0469 22.0688ZM9.59805 22.3463C9.42302 22.367 9.24704 22.3351 9.07013 22.2505C8.89321 22.166 8.7855 22.0276 8.74698 21.8353C8.72317 21.4849 8.75949 21.0633 8.85592 20.5705C8.95235 20.0776 9.07493 19.5755 9.22365 19.0642C9.37237 18.5529 9.48712 18.1035 9.5679 17.7162C9.6659 17.311 9.71348 17.0295 9.71066 16.8717L9.60545 16.8736C9.35997 16.878 9.09553 16.8038 8.81216 16.651C8.546 16.4803 8.41042 16.2547 8.4054 15.9742C8.40132 15.7462 8.48539 15.543 8.65761 15.3645C8.84735 15.1857 9.02019 15.0423 9.17612 14.9343C9.2281 14.8983 9.27992 14.8535 9.33159 14.8C9.40079 14.7461 9.4703 14.7098 9.54012 14.691L9.82757 14.5806L9.85575 14.6853C9.85638 14.7204 9.77919 14.8183 9.6242 14.9789L9.46968 15.1658C9.41802 15.2194 9.39234 15.2549 9.39265 15.2725C9.32408 15.3614 9.25692 15.5292 9.19117 15.776C9.14296 16.0224 9.11979 16.1982 9.12167 16.3034C9.14046 16.3732 9.17631 16.4164 9.22923 16.433C9.29937 16.4318 9.36951 16.4305 9.43965 16.4293C9.50979 16.428 9.58838 16.4091 9.67543 16.3724C9.76216 16.3183 9.8406 16.2906 9.91073 16.2893C9.94392 16.1835 9.97743 16.0952 10.0112 16.0244L10.1639 15.7323L10.1625 15.6533C10.1953 15.53 10.2282 15.4066 10.2611 15.2832C10.2937 15.1423 10.3176 15.0104 10.3329 14.8873C10.3655 14.7464 10.3982 14.6143 10.4311 14.4909C10.4637 14.35 10.5138 14.2088 10.5814 14.0672C10.6991 13.7845 10.833 13.4225 10.9829 12.9813C11.1326 12.5226 11.2914 12.0812 11.4592 11.6573C11.6442 11.2155 11.8227 10.8965 11.9946 10.7005C12.0625 10.5765 12.1306 10.4613 12.1989 10.3548C12.2847 10.2481 12.3616 10.1327 12.4295 10.0087C12.6002 9.74251 12.8577 9.43095 13.2021 9.07399C13.5465 8.71702 13.9177 8.38589 14.3157 8.08059C14.7134 7.75775 15.0605 7.54983 15.357 7.45683L15.7492 7.31827C15.9251 7.3502 16.1547 7.4338 16.4377 7.56906C16.7208 7.70433 16.9692 7.86652 17.1831 8.05564C17.4145 8.24444 17.5409 8.4439 17.5622 8.654C17.6032 8.98654 17.5141 9.40033 17.2949 9.89538C17.0758 10.3904 16.8212 10.8686 16.5313 11.3298C16.241 11.7735 15.9929 12.12 15.7868 12.3692C15.6838 12.4938 15.572 12.6186 15.4515 12.7436C15.3482 12.8507 15.2539 12.9751 15.1688 13.117C15.0473 13.1893 14.9438 13.2876 14.8583 13.4119C14.79 13.5184 14.7041 13.6164 14.6004 13.706C14.4971 13.813 14.2986 13.992 14.0049 14.2428C13.7284 14.4758 13.4086 14.7358 13.0454 15.023C12.6994 15.2923 12.3704 15.5349 12.0586 15.751C11.7639 15.9492 11.5556 16.067 11.4334 16.1042C11.3639 16.1405 11.2944 16.1769 11.2249 16.2132C11.1726 16.2317 11.1117 16.2591 11.0422 16.2954C10.9555 16.3496 10.8515 16.4216 10.7303 16.5114C10.6611 16.5653 10.5935 16.7068 10.5274 16.936C10.4611 17.1477 10.395 17.3769 10.3292 17.6237C10.2807 17.8526 10.2399 18.0199 10.2067 18.1257C10.14 18.3199 10.091 18.5225 10.0597 18.7335C10.0459 18.9443 9.9969 19.1468 9.91268 19.3413L9.86477 19.6053C9.83284 19.7812 9.79214 19.9574 9.74267 20.1336C9.6932 20.3099 9.65265 20.4948 9.62103 20.6883L9.54965 21.1106L9.55012 21.1369L10.1691 20.4417C10.3238 20.2636 10.5472 20.0053 10.8394 19.6668C11.1315 19.3283 11.4495 18.963 11.7933 18.571C12.1367 18.1614 12.4807 17.7781 12.8251 17.4212C13.1868 17.0464 13.5057 16.7337 13.7819 16.4832C14.058 16.2327 14.2573 16.0976 14.3797 16.0779C14.4148 16.0772 14.4411 16.0768 14.4587 16.0764C14.4759 16.0586 14.4933 16.0495 14.5108 16.0492C14.8089 16.0439 15.0819 16.1091 15.3299 16.245C15.5779 16.3809 15.6598 16.5461 15.5756 16.7405C15.4779 17.1633 15.3279 17.6045 15.1256 18.0641C14.9406 18.5059 14.7819 18.9473 14.6494 19.3882C14.517 19.829 14.4724 20.2771 14.5156 20.7324C14.5353 20.8548 14.5829 21.0645 14.6584 21.3613C14.7514 21.6578 14.9031 21.8042 15.1135 21.8004C15.2889 21.7973 15.4714 21.7063 15.6612 21.5275C15.8687 21.366 16.0583 21.1784 16.2299 20.9648C16.419 20.751 16.5737 20.5728 16.694 20.4303C16.7801 20.3411 16.8662 20.2519 16.9523 20.1626C17.0381 20.0558 17.1416 19.9575 17.2627 19.8677L17.2966 20.288C17.2627 20.3588 17.2289 20.4295 17.1951 20.5003C17.1613 20.5711 17.1275 20.6418 17.0937 20.7126C16.9744 20.9077 16.8471 21.1468 16.7118 21.4298C16.5766 21.7129 16.4137 21.9263 16.2234 22.07C16.1714 22.106 16.0053 22.1353 15.725 22.1578C15.4451 22.1979 15.2613 22.2188 15.1736 22.2203C15.0684 22.2222 14.9717 22.2064 14.8834 22.1729C14.8126 22.1391 14.7243 22.1056 14.6185 22.0724C14.2653 21.9384 13.9199 21.7516 13.5823 21.5121C13.262 21.2547 13.0984 20.9331 13.0915 20.5474C13.0899 20.4597 13.0796 20.3722 13.0605 20.2848C13.0589 20.1971 13.066 20.1005 13.0816 19.995C13.0779 19.7846 13.1084 19.5297 13.1732 19.2304C13.2211 18.9664 13.2602 18.7026 13.2906 18.439C13.3385 18.175 13.3776 17.9112 13.408 17.6475L13.3822 17.6743C13.3133 17.7457 13.2444 17.8171 13.1755 17.8885C13.1066 17.9599 13.0467 18.0399 12.9956 18.1285C12.8929 18.2707 12.8073 18.3862 12.7387 18.4751C12.6874 18.5462 12.5927 18.6444 12.4546 18.7696L12.2733 18.9307C12.1521 19.0206 12.0488 19.1277 11.9633 19.252C11.8775 19.3588 11.792 19.4831 11.7069 19.6249C11.6383 19.7139 11.5699 19.8116 11.5016 19.918C11.4506 20.0066 11.382 20.0956 11.2959 20.1848C11.1754 20.3097 11.0548 20.4347 10.9343 20.5596C10.8134 20.667 10.7104 20.7917 10.6252 20.9335C10.557 21.04 10.4633 21.1995 10.3444 21.4121C10.2254 21.6247 10.0973 21.82 9.96017 21.9978C9.84087 22.1929 9.72017 22.3091 9.59805 22.3463ZM10.8754 15.7985C12.1417 15.0041 13.2736 14.0542 14.2712 12.9488C15.286 11.8257 16.027 10.5933 16.4941 9.25193C16.5107 9.19901 16.5184 9.13748 16.5171 9.06734C16.5162 9.01474 16.5066 8.97106 16.4885 8.9363C16.4875 8.8837 16.4864 8.82233 16.4852 8.75219C16.4852 8.75219 16.4413 8.75297 16.3537 8.75454C16.3361 8.75485 16.3011 8.75548 16.2485 8.75642C16.2134 8.75705 16.1782 8.74891 16.1428 8.732C16.0038 8.80465 15.8386 8.88653 15.6473 8.97765C15.456 9.06878 15.3085 9.15911 15.2048 9.24867L15.1536 9.32852L15.1541 9.35482C15.1197 9.39051 15.1024 9.40836 15.1024 9.40836C15.0163 9.4976 14.9302 9.58685 14.8441 9.67609C14.7577 9.74779 14.6713 9.8195 14.5849 9.89121C14.4634 9.96354 14.3513 10.0708 14.2486 10.2129L14.1716 10.3196C14.103 10.4085 14.0256 10.4976 13.9395 10.5868C13.8531 10.6585 13.7667 10.7302 13.6803 10.8019C13.6283 10.8379 13.5167 10.9715 13.3454 11.2026C13.1917 11.4334 13.0381 11.6729 12.8847 11.9212C12.7309 12.152 12.6287 12.3204 12.578 12.4266C12.5614 12.4795 12.5446 12.5237 12.5277 12.559C12.5108 12.5944 12.4764 12.6301 12.4244 12.6661C12.4256 12.7363 12.4089 12.7804 12.3741 12.7986L12.4291 12.9291L12.2976 12.9315C12.2813 13.002 12.2307 13.1169 12.1459 13.2762C12.0607 13.4181 11.9834 13.5072 11.9139 13.5435C11.8976 13.614 11.8134 13.8084 11.6612 14.1269C11.5262 14.4275 11.3828 14.7457 11.231 15.0817C11.0788 15.4002 10.9603 15.6391 10.8754 15.7985ZM19.8157 21.5848C19.5001 21.5905 19.1571 21.5352 18.7867 21.419C18.4338 21.3026 18.1236 21.1239 17.8562 20.8832C17.6063 20.6421 17.4607 20.3465 17.4194 19.9964C17.4178 19.9087 17.4163 19.8211 17.4147 19.7334C17.4307 19.6454 17.4293 19.5665 17.4105 19.4967C17.4095 19.4441 17.356 19.3924 17.2498 19.3417L17.1695 19.2642C17.0987 19.2304 17.0278 19.1878 16.9567 19.1364C16.8854 19.0675 16.8489 18.9893 16.8473 18.9016C16.8996 18.8831 16.9433 18.8736 16.9783 18.8729C17.066 18.8714 17.1451 18.8787 17.2155 18.895C17.3035 18.911 17.3826 18.9183 17.4527 18.9171C17.4352 18.9174 17.4433 18.8822 17.4771 18.8114C17.4765 18.7763 17.4847 18.7411 17.5016 18.7057C17.5182 18.6528 17.5351 18.6174 17.5523 18.5996C17.5698 18.5993 17.595 18.5374 17.6279 18.414C17.6605 18.2731 17.6854 18.1938 17.7026 18.1759C17.9346 17.4175 18.2563 16.7716 18.6677 16.238C19.0964 15.6866 19.6854 15.2726 20.4347 14.9961C20.5045 14.9773 20.5657 14.9675 20.6183 14.9665C20.6881 14.9477 20.7581 14.9377 20.8282 14.9365C20.9685 14.9339 21.1536 14.9833 21.3834 15.0844C21.6129 15.168 21.8168 15.2871 21.9949 15.4418C22.1903 15.5786 22.2982 15.7258 22.3186 15.8833C22.3198 15.9534 22.3209 16.0148 22.3219 16.0674C22.3403 16.1197 22.3502 16.1809 22.3514 16.2511C22.3533 16.3563 22.3292 16.4795 22.2791 16.6207L22.1227 16.7024C22.0889 16.7732 22.0548 16.8264 22.0203 16.8621L21.8658 17.0491C21.728 17.1918 21.6772 17.2892 21.7132 17.3412L21.661 17.3684C21.661 17.3684 21.6612 17.3772 21.6615 17.3948C21.6615 17.3948 21.6527 17.3949 21.6352 17.3952L21.661 17.3684L21.6352 17.3952L21.6357 17.4215L21.5046 17.4502C21.4354 17.504 21.3752 17.5665 21.3238 17.6376C21.2721 17.6911 21.2206 17.7534 21.1693 17.8245C20.9113 18.1098 20.5737 18.3614 20.1567 18.5793C19.7393 18.7797 19.3567 18.962 19.0088 19.1261C18.9565 19.1445 18.8781 19.1722 18.7735 19.2092C18.6861 19.2283 18.6254 19.2645 18.5912 19.3177C18.5227 19.4066 18.4809 19.5214 18.4658 19.662C18.4508 19.8026 18.4444 19.9342 18.4466 20.057C18.4854 20.2668 18.5416 20.4675 18.6152 20.6591C18.7063 20.8504 18.8834 20.9437 19.1464 20.939L19.3832 20.9348C19.4708 20.9332 19.5583 20.9229 19.6457 20.9038C19.7506 20.8844 19.8555 20.8649 19.9604 20.8455L20.1426 20.737L20.1694 20.7629C20.274 20.7259 20.4567 20.6437 20.7175 20.5163C20.9783 20.3888 21.2304 20.2615 21.4737 20.1344C21.7167 19.9897 21.864 19.8906 21.9157 19.8371L21.9415 19.8103L21.9669 19.7572L22.0443 19.6769C22.3559 19.4433 22.6593 19.245 22.9546 19.0818C23.2495 18.9011 23.5348 18.668 23.8103 18.3824L23.8639 18.4341L23.9428 18.4327C23.9274 18.5558 23.8853 18.653 23.8164 18.7244C23.7472 18.7782 23.6696 18.8498 23.5835 18.939L23.5069 19.0719C23.3025 19.4089 22.984 19.7478 22.5516 20.0888C22.1367 20.4295 21.756 20.717 21.4094 20.9512C21.2879 21.0235 21.1667 21.1134 21.0458 21.2208C20.9247 21.3107 20.7856 21.3833 20.6288 21.4387C20.3322 21.5317 20.0612 21.5804 19.8157 21.5848ZM18.9158 18.3384C19.021 18.3365 19.0911 18.3353 19.1262 18.3346C19.1785 18.3162 19.2483 18.2974 19.3357 18.2783C19.6829 18.0791 20.0032 17.8454 20.2966 17.577C20.6075 17.3084 20.9009 17.04 21.1768 16.772C21.2097 16.6486 21.2955 16.5418 21.4342 16.4516L21.538 16.3708C21.5724 16.3352 21.5981 16.2996 21.615 16.2642C21.6494 16.2285 21.6663 16.1931 21.6657 16.1581C21.6829 16.1402 21.6731 16.079 21.6361 15.9744L21.6075 15.8434L21.6065 15.7908C21.5536 15.7742 21.4833 15.7667 21.3956 15.7682C21.2738 15.823 21.1525 15.9041 21.0316 16.0116C20.9108 16.119 20.7804 16.1827 20.6404 16.2027C20.5721 16.3092 20.4256 16.4521 20.2008 16.6315C20.0799 16.739 19.9591 16.8464 19.8382 16.9538C19.7346 17.0433 19.6655 17.1059 19.6311 17.1416C19.5105 17.2666 19.3649 17.4621 19.1943 17.7283C19.0233 17.9769 18.9305 18.1803 18.9158 18.3384ZM26.1897 21.655C25.8565 21.661 25.478 21.5801 25.054 21.4122C24.6304 21.2619 24.3196 21.0482 24.1217 20.7711C24.0497 20.6672 24.0039 20.5628 23.9845 20.4579C23.9651 20.353 23.9459 20.2568 23.9267 20.1695C23.9029 19.8191 23.9069 19.5472 23.9385 19.3536C23.9698 19.1426 24.0275 18.9399 24.1118 18.7454C24.196 18.551 24.2882 18.3125 24.3884 18.0301C24.405 17.9772 24.4736 17.8882 24.5941 17.7633C24.7147 17.6384 24.8352 17.5134 24.9558 17.3885C25.0935 17.2457 25.1795 17.1477 25.2136 17.0945C25.2994 16.9877 25.3678 16.89 25.4189 16.8014C25.4874 16.7124 25.5915 16.6492 25.7312 16.6116C25.7659 16.5934 25.7921 16.5842 25.8096 16.5839C25.8447 16.5833 25.8708 16.574 25.8881 16.5562C25.9554 16.3971 26.0321 16.273 26.1182 16.1837C26.2215 16.0766 26.3338 15.9782 26.455 15.8883C26.5586 15.7987 26.767 15.681 27.0801 15.5351C27.4107 15.3888 27.6374 15.3146 27.7602 15.3124C27.8479 15.3109 27.9271 15.327 27.9978 15.3608C28.0861 15.3943 28.1741 15.4103 28.2618 15.4087L28.3402 15.381C28.359 15.4508 28.4303 15.5109 28.554 15.5613C28.678 15.6293 28.8461 15.714 29.0584 15.8154C29.2882 15.9166 29.4132 16.0371 29.4332 16.1771C29.4342 16.2297 29.401 16.3355 29.3336 16.4946C29.2839 16.6533 29.2076 16.8038 29.1049 16.946C29.0198 17.0878 28.9335 17.1683 28.8461 17.1874C28.8446 17.0997 28.8433 17.0296 28.8424 16.977C28.859 16.924 28.8754 16.8624 28.8917 16.7919C28.8907 16.7393 28.89 16.6955 28.8893 16.6604C28.9059 16.6075 28.9138 16.5547 28.9128 16.5021C28.8937 16.4147 28.8572 16.3365 28.8034 16.2673C28.7495 16.1981 28.6787 16.1643 28.5911 16.1658C28.3631 16.1699 28.102 16.2798 27.8077 16.4956C27.5133 16.7113 27.237 16.953 26.9787 17.2208C26.72 17.4709 26.5222 17.685 26.385 17.8628C26.127 18.1481 25.9041 18.4327 25.7162 18.7167C25.5459 19.0004 25.4203 19.3359 25.3395 19.7233C25.3242 19.8463 25.3089 19.9694 25.2935 20.0924C25.2957 20.2152 25.2981 20.3467 25.3006 20.487C25.3366 20.5389 25.3552 20.6 25.3565 20.6701C25.3753 20.74 25.4027 20.8009 25.4387 20.8528C25.4741 20.8697 25.4921 20.8957 25.4927 20.9308C25.5108 20.9656 25.5288 20.9915 25.5467 21.0088L25.5739 21.0609L25.5744 21.0872L25.7848 21.0834C25.9602 21.0803 26.1089 21.0601 26.231 21.0228C26.3531 20.9856 26.4754 20.9571 26.5978 20.9374C26.6849 20.9007 26.7721 20.8728 26.8595 20.8537C26.964 20.8168 27.0689 20.7974 27.1741 20.7955C27.2778 20.7059 27.3905 20.6338 27.5123 20.579C27.6338 20.5066 27.7554 20.4431 27.8772 20.3883L27.8763 20.3357C28.0169 20.3507 28.1476 20.3045 28.2685 20.1971C28.4069 20.0894 28.5282 20.0083 28.6325 19.9538C29.0317 19.7186 29.4134 19.4838 29.7776 19.2493C30.1417 19.0147 30.4879 18.7542 30.816 18.4677C30.868 18.4317 30.989 18.333 31.1791 18.1718C31.3691 18.0105 31.4817 17.9296 31.5168 17.9289C31.5168 17.9289 31.534 17.9111 31.5684 17.8754C31.7103 17.9606 31.782 18.047 31.7835 18.1347C31.7854 18.2399 31.7347 18.346 31.6314 18.4531C31.528 18.5602 31.433 18.6408 31.3463 18.695C31.2768 18.7313 31.2074 18.7764 31.1382 18.8303C31.0862 18.8663 31.0343 18.9023 30.9823 18.9383C30.9128 18.9746 30.8434 19.0197 30.7742 19.0736C30.7222 19.1096 30.6792 19.1542 30.6451 19.2074C30.6112 19.2782 30.5685 19.3404 30.5168 19.3939C30.4827 19.4471 30.422 19.4833 30.3346 19.5024L30.3092 19.5555C30.1877 19.6278 30.0664 19.7089 29.9452 19.7988C29.8237 19.8711 29.7024 19.9522 29.5812 20.0421C29.512 20.0959 29.4599 20.1232 29.4248 20.1238C29.2335 20.2149 29.0341 20.3413 28.8265 20.5029C28.6705 20.6109 28.5323 20.7274 28.4118 20.8523C28.2909 20.9597 28.1342 21.0239 27.9416 21.0449C27.9087 21.1683 27.8223 21.24 27.6823 21.26C27.5599 21.2797 27.4552 21.3079 27.3681 21.3446C27.0033 21.544 26.6105 21.6475 26.1897 21.655ZM41.4676 27.3544C40.9591 27.3635 40.4386 27.1886 39.9059 26.8298C39.3733 26.471 38.8565 26.0154 38.3555 25.4631C37.8723 24.9279 37.4329 24.3833 37.0371 23.8291C36.6591 23.2921 36.3616 22.8413 36.1446 22.4769C35.855 21.9734 35.5467 21.4088 35.2198 20.7832C34.9104 20.1573 34.6457 19.5744 34.4255 19.0346C34.4071 18.9823 34.361 18.8604 34.2874 18.6687C34.2135 18.4596 34.1503 18.3555 34.0977 18.3564C34.0802 18.3567 34.0719 18.3832 34.0728 18.4358C34.003 18.4546 33.9253 18.5261 33.8398 18.6504C33.7716 18.7569 33.6949 18.881 33.6097 19.0229C33.5584 19.094 33.4901 19.2004 33.4049 19.3423C33.3198 19.4841 33.2337 19.5734 33.1466 19.61C33.1131 19.6983 33.0702 19.7517 33.0179 19.7702C32.9832 19.7883 32.9494 19.8591 32.9165 19.9825L32.8653 20.0623C32.8152 20.2035 32.7302 20.3541 32.6103 20.5141C32.5761 20.5674 32.542 20.6206 32.5079 20.6738C32.4737 20.7271 32.4396 20.7803 32.4055 20.8335C32.372 20.9218 32.3566 21.0449 32.3595 21.2027C32.3626 21.378 32.2677 21.4674 32.0748 21.4709C31.8995 21.474 31.7318 21.4156 31.5718 21.2957C31.4121 21.1933 31.3219 21.0546 31.3013 20.8796C31.2577 20.4068 31.2842 19.9239 31.3806 19.4311C31.4943 18.9204 31.6353 18.4706 31.8038 18.0817C31.8366 17.9583 31.8526 17.8703 31.8517 17.8177C31.8679 17.7473 31.8845 17.6943 31.9014 17.659C31.9177 17.5885 31.934 17.5181 31.9503 17.4476C31.9841 17.3768 32.0347 17.2619 32.102 17.1029C32.3885 16.4487 32.6235 15.8569 32.8069 15.3274C33.008 14.7976 33.2177 14.2677 33.4363 13.7376C33.6721 13.1896 33.9601 12.6232 34.3005 12.0382C34.6405 11.4358 35.1282 10.7518 35.7635 9.98617L35.8922 9.826L35.8917 9.7997C36.1838 9.46121 36.4941 9.15748 36.8226 8.8885C37.151 8.61952 37.5152 8.38499 37.915 8.18489C38.0556 8.19992 38.2755 8.23107 38.5745 8.27835C38.891 8.32531 39.0943 8.40938 39.1841 8.53055C39.4713 8.89377 39.6184 9.27702 39.6257 9.68032C39.6272 9.768 39.6202 9.8646 39.6045 9.97012C39.5886 10.0581 39.5638 10.1462 39.5303 10.2346C39.4636 10.4287 39.2758 10.7127 38.9667 11.0866C38.6749 11.4426 38.3309 11.8259 37.9349 12.2364C37.556 12.629 37.1854 12.9952 36.8231 13.335C36.4781 13.6569 36.2104 13.8897 36.02 14.0334C36.0028 14.0513 35.9683 14.087 35.9167 14.1405C35.8647 14.1765 35.8127 14.2125 35.7607 14.2485C35.6399 14.3559 35.4674 14.5169 35.2432 14.7314C35.0362 14.928 34.8626 15.0276 34.7223 15.0301C34.7044 15.0129 34.6955 15.0043 34.6955 15.0043C34.6952 14.9867 34.6951 14.978 34.6951 14.978C34.6951 14.978 34.6863 14.9781 34.6688 14.9784C34.6509 14.9612 34.6332 14.9528 34.6157 14.9531L34.6143 14.8742C35.3379 14.1421 36.0527 13.4101 36.7588 12.6784C37.4821 11.9287 38.1075 11.1019 38.6351 10.1979C38.7206 10.0736 38.823 9.91393 38.9423 9.71885C39.0788 9.50593 39.146 9.33809 39.1438 9.21535C39.1425 9.14521 39.1328 9.09276 39.1146 9.05801L39.0869 8.97957C38.7547 9.03813 38.5028 9.17419 38.3312 9.38774C38.1772 9.60098 37.9788 9.7887 37.7361 9.9509C37.6146 10.0232 37.5453 10.0683 37.5281 10.0862C37.5105 10.0865 37.4504 10.1577 37.3477 10.2999L37.2449 10.4333C37.1763 10.5222 37.116 10.5847 37.064 10.6207C37.0296 10.6564 36.9692 10.7101 36.8827 10.7818C36.7966 10.871 36.7631 10.9593 36.7822 11.0467C36.6254 11.1021 36.504 11.1832 36.4182 11.29C36.35 11.3965 36.2908 11.5203 36.2407 11.6615C35.962 11.7717 35.7294 12.0039 35.5428 12.3581C35.3737 12.7119 35.2124 13.013 35.059 13.2613C35.0252 13.332 34.9739 13.4031 34.905 13.4745C34.8533 13.5281 34.8283 13.5987 34.8298 13.6863C34.7603 13.7227 34.649 13.8737 34.4959 14.1396C34.3428 14.4054 34.2409 14.5914 34.1901 14.6976C34.1735 14.7505 34.1485 14.8211 34.115 14.9094C34.0815 14.9977 34.0563 15.0595 34.0394 15.0949C34.0222 15.1128 33.9713 15.2102 33.8867 15.3871C33.8019 15.5465 33.7089 15.7411 33.6078 15.9709C33.5239 16.1829 33.4484 16.3772 33.3814 16.5538C33.3141 16.7128 33.2806 16.8011 33.2809 16.8187C33.2295 16.8898 33.1534 17.049 33.0526 17.2963C32.9518 17.5437 32.8428 17.8263 32.7257 18.1441C32.6262 18.4616 32.5349 18.7527 32.4519 19.0173C32.3865 19.2815 32.3546 19.4575 32.3561 19.5452C32.3737 19.5449 32.399 19.4918 32.4322 19.386C32.4829 19.2798 32.5169 19.2178 32.5341 19.2C32.603 19.1286 32.6631 19.0573 32.7145 18.9863C32.7834 18.9149 32.8347 18.8438 32.8685 18.773L32.8939 18.72C32.9446 18.6138 33.0132 18.5249 33.0996 18.4532C33.1857 18.3639 33.2631 18.2748 33.3316 18.1859C33.3661 18.1502 33.426 18.0702 33.5115 17.9459C33.6142 17.8037 33.7171 17.6704 33.8201 17.5457C33.9228 17.4036 33.9741 17.3325 33.9741 17.3325L33.9723 17.2273C33.9707 17.1396 33.9164 17.0441 33.8093 16.9408C33.7019 16.8199 33.578 16.7607 33.4378 16.7632L33.4349 16.6054C33.5223 16.5863 33.6097 16.5672 33.697 16.5481C33.7841 16.5115 33.8714 16.4924 33.9591 16.4908C34.0818 16.4886 34.1961 16.5041 34.302 16.5373C34.4075 16.553 34.5216 16.5597 34.6444 16.5575C34.7129 16.4686 34.7818 16.3972 34.851 16.3433C34.9374 16.2716 35.0151 16.2001 35.084 16.1287C35.3257 15.9139 35.5762 15.6989 35.8355 15.4838C36.1122 15.2684 36.4172 15.1577 36.7504 15.1517C37.0309 15.1467 37.2691 15.2214 37.4648 15.3757C37.6605 15.5301 37.7607 15.7388 37.7654 16.0018C37.7688 16.1947 37.6846 16.3891 37.5127 16.5852C37.3408 16.7812 37.1421 16.9514 36.9167 17.0957C36.7088 17.2397 36.5176 17.3396 36.3432 17.3954C36.0119 17.5065 35.6622 17.5654 35.294 17.572C35.2592 17.5902 35.2335 17.6257 35.2169 17.6786C35.2176 17.7137 35.2182 17.7488 35.2188 17.7838C35.2395 17.9589 35.3137 18.1856 35.4415 18.4639C35.5689 18.7247 35.6694 18.951 35.743 19.1426C35.779 19.1946 35.7975 19.2469 35.7984 19.2995C35.8169 19.3518 35.8354 19.4041 35.8539 19.4563C35.9822 19.7698 36.2094 20.213 36.5354 20.786C36.8789 21.3587 37.2759 21.983 37.7265 22.6591C38.1771 23.3351 38.6534 23.9756 39.1553 24.5805C39.6751 25.2027 40.1752 25.7024 40.6555 26.0797C41.1362 26.4745 41.5606 26.6687 41.9289 26.6621C42.2094 26.6571 42.4353 26.539 42.6066 26.3079C42.7434 26.1125 42.8508 25.7423 42.9288 25.1971C43.0067 24.652 43.042 24.169 43.0344 23.7481C43.0329 23.6605 43.0313 23.5728 43.0297 23.4851C43.0285 23.415 43.0185 23.345 42.9997 23.2752L43.1575 23.2724L43.1584 23.325L43.1847 23.3245C43.2577 23.4811 43.2956 23.6382 43.2984 23.7961C43.3191 23.9711 43.3485 24.146 43.3867 24.3207C43.4249 24.4954 43.4543 24.6703 43.475 24.8453C43.4951 24.9853 43.5151 25.1252 43.5351 25.2652C43.5552 25.4052 43.5665 25.5453 43.569 25.6856C43.5702 25.7557 43.5715 25.8259 43.5727 25.896C43.574 25.9661 43.5577 26.0366 43.5239 26.1073C43.4572 26.3015 43.2941 26.4973 43.0345 26.6949C42.7925 26.8922 42.5233 27.0461 42.2271 27.1566C41.9312 27.2847 41.6781 27.3506 41.4676 27.3544ZM34.6951 14.978L34.6692 15.0047C34.6689 14.9872 34.6775 14.9783 34.6951 14.978ZM35.0483 17.0765L35.0746 17.076L35.1789 17.0215L35.2056 17.0474C35.38 16.9916 35.6061 16.8823 35.8839 16.7195C36.1788 16.5388 36.4385 16.35 36.663 16.1531C36.8872 15.9386 36.9893 15.7613 36.9693 15.6214C36.969 15.6038 36.9602 15.604 36.943 15.6218L36.8378 15.6237C36.7507 15.6604 36.6118 15.7418 36.4212 15.868C36.2302 15.9766 36.057 16.1025 35.9017 16.2456C35.7461 16.3712 35.6604 16.4867 35.6448 16.5922C35.5405 16.6467 35.419 16.7191 35.2803 16.8092C35.1588 16.8816 35.0815 16.9707 35.0483 17.0765ZM45.3546 22.97C45.2318 22.9722 45.0554 22.9139 44.8252 22.7953C44.6129 22.6938 44.4623 22.6088 44.3734 22.5402C44.07 22.2475 43.9129 21.803 43.9023 21.2068C43.8944 20.7685 43.9478 20.3202 44.0624 19.8621C44.1767 19.3865 44.3091 18.9456 44.4597 18.5395C44.61 18.1158 44.7357 17.7891 44.8368 17.5593C44.871 17.506 44.9048 17.4353 44.9383 17.347C44.9715 17.2411 45.0221 17.1262 45.09 17.0022C45.1739 16.7902 45.2755 16.5867 45.3948 16.3916L45.0548 16.5029L44.9232 16.5053C44.7498 16.6136 44.5583 16.696 44.3488 16.7524C44.1566 16.7909 43.9645 16.8382 43.7725 16.8942C43.5631 16.9506 43.3628 17.0331 43.1718 17.1417C42.9805 17.2329 42.7892 17.324 42.5979 17.4151C42.5982 17.4326 42.572 17.4419 42.5194 17.4428C42.4318 17.4444 42.3521 17.402 42.2804 17.3155C42.2083 17.2116 42.1717 17.1245 42.1705 17.0544C42.1695 17.0018 42.2736 16.9385 42.4828 16.8646C42.6741 16.7735 42.9093 16.6816 43.1882 16.5889C43.4845 16.4784 43.7547 16.3859 43.9989 16.3113C44.2604 16.219 44.4348 16.1632 44.5221 16.1441C44.6618 16.1065 44.7839 16.0693 44.8885 16.0323C44.9931 15.9954 45.0976 15.9584 45.2022 15.9215L45.2018 15.8952L45.307 15.8933C45.4472 15.8908 45.552 15.8626 45.6212 15.8087C45.7727 15.4552 46.0101 14.9949 46.3332 14.4279C46.656 13.8433 47.0151 13.3282 47.4106 12.8826C47.4967 12.7933 47.5387 12.6874 47.5365 12.5646C47.5518 12.4416 47.6024 12.3266 47.6882 12.2199C47.8259 12.0771 47.9379 11.9611 48.024 11.8718C48.1276 11.7823 48.2662 11.6833 48.4397 11.575C48.5452 11.5906 48.7216 11.6489 48.969 11.7497C49.2164 11.8505 49.4463 11.9604 49.659 12.0794C49.8891 12.1981 50.0051 12.31 50.007 12.4152C50.0079 12.4678 49.922 12.5658 49.7491 12.7092C49.576 12.8351 49.3941 12.9611 49.2034 13.0873C49.0127 13.2135 48.8828 13.3035 48.8136 13.3574L48.6304 13.4133C48.4231 13.5924 48.2335 13.78 48.0616 13.976C47.8897 14.172 47.7089 14.3594 47.5191 14.5382C47.4158 14.6453 47.3303 14.7696 47.2627 14.9111C47.2123 15.0348 47.1354 15.1502 47.0321 15.2573L47.0344 15.3888C46.9825 15.4248 46.9394 15.4694 46.9053 15.5227C47.3781 15.4791 47.7466 15.4901 48.0109 15.5555C48.2924 15.6031 48.5756 15.7471 48.8606 15.9876C48.8963 16.0221 48.9146 16.0656 48.9155 16.1182C48.9165 16.1708 48.8906 16.1976 48.838 16.1985L48.7328 16.2004L48.7324 16.1741L48.7065 16.2009C48.2838 16.1032 47.8796 16.0578 47.4938 16.0647C47.336 16.0675 47.1871 16.0789 47.0471 16.099C46.9072 16.119 46.7847 16.1387 46.6799 16.1582C46.6799 16.1582 46.6287 16.238 46.5263 16.3977C46.4236 16.5399 46.321 16.6908 46.2186 16.8505C46.1159 16.9926 46.0649 17.0813 46.0655 17.1163C46.0314 17.1696 45.9635 17.2935 45.8617 17.4883C45.7775 17.6828 45.6934 17.886 45.6095 18.098C45.5588 18.2041 45.508 18.3103 45.4573 18.4164C45.4238 18.5047 45.3902 18.5842 45.3563 18.655L45.2291 18.8941C45.2313 19.0168 45.2073 19.1488 45.1572 19.29C45.1243 19.4134 45.0913 19.528 45.0581 19.6338L45.0318 19.6343L45.0328 19.6869C45.0346 19.7921 45.0104 19.9066 44.96 20.0302C44.9268 20.1361 44.8934 20.2332 44.8599 20.3215C44.7795 20.7263 44.7424 21.1041 44.7486 21.4548C44.7502 21.5425 44.7518 21.6301 44.7533 21.7178C44.7549 21.8055 44.7652 21.893 44.7843 21.9804C44.8216 22.1025 44.8586 22.2071 44.8952 22.2941C44.9494 22.3808 45.0295 22.4496 45.1357 22.5003C45.1883 22.4994 45.2323 22.5073 45.2677 22.5242L45.4785 22.5468C45.6896 22.5781 45.7957 22.6288 45.797 22.699C45.7992 22.8217 45.7391 22.8929 45.6166 22.9127C45.5121 22.9496 45.4247 22.9687 45.3546 22.97ZM49.6934 21.6295C49.5184 21.6502 49.3424 21.6182 49.1655 21.5337C48.9886 21.4492 48.8809 21.3108 48.8423 21.1185C48.8185 20.7681 48.8548 20.3465 48.9513 19.8536C49.0477 19.3608 49.1703 18.8587 49.319 18.3474C49.4677 17.836 49.5825 17.3867 49.6633 16.9994C49.7612 16.5942 49.8088 16.3127 49.806 16.1549L49.7008 16.1568C49.4553 16.1612 49.1909 16.087 48.9075 15.9342C48.6414 15.7635 48.5058 15.5379 48.5008 15.2574C48.4967 15.0294 48.5807 14.8262 48.753 14.6477C48.9427 14.4689 49.1155 14.3255 49.2715 14.2175C49.3235 14.1815 49.3753 14.1367 49.4269 14.0831C49.4961 14.0293 49.5657 13.993 49.6355 13.9742L49.9229 13.8638L49.9511 13.9685C49.9517 14.0036 49.8745 14.1014 49.7196 14.2621L49.565 14.449C49.5134 14.5026 49.4877 14.5381 49.488 14.5556C49.4194 14.6446 49.3523 14.8124 49.2865 15.0591C49.2383 15.3056 49.2151 15.4814 49.217 15.5866C49.2358 15.6564 49.2717 15.6996 49.3246 15.7162C49.3947 15.715 49.4649 15.7137 49.535 15.7125C49.6051 15.7112 49.6837 15.6923 49.7708 15.6556C49.8575 15.6014 49.9359 15.5737 50.0061 15.5725C50.0393 15.4666 50.0728 15.3783 50.1066 15.3076L50.2592 15.0154L50.2578 14.9365C50.2907 14.8132 50.3236 14.6898 50.3564 14.5664C50.389 14.4255 50.413 14.2935 50.4283 14.1705C50.4609 14.0296 50.4936 13.8974 50.5265 13.7741C50.559 13.6332 50.6091 13.4919 50.6767 13.3504C50.7945 13.0677 50.9283 12.7057 51.0783 12.2645C51.228 11.8058 51.3867 11.3644 51.5545 10.9405C51.7396 10.4986 51.918 10.1797 52.0899 9.9837C52.1579 9.8597 52.226 9.74447 52.2943 9.63801C52.38 9.53123 52.4569 9.41585 52.5249 9.29185C52.6955 9.02569 52.953 8.71413 53.2975 8.35717C53.6419 8.0002 54.0131 7.66907 54.4111 7.36377C54.8087 7.04093 55.1558 6.83301 55.4523 6.74001L55.8445 6.60145C56.0205 6.63338 56.25 6.71698 56.5331 6.85224C56.8161 6.9875 57.0646 7.1497 57.2785 7.33882C57.5099 7.52762 57.6362 7.72708 57.6575 7.93718C57.6985 8.26972 57.6095 8.68351 57.3903 9.17856C57.1711 9.67361 56.9166 10.1517 56.6266 10.613C56.3364 11.0567 56.0882 11.4032 55.8822 11.6524C55.7792 11.777 55.6674 11.9018 55.5468 12.0267C55.4435 12.1338 55.3493 12.2583 55.2641 12.4001C55.1426 12.4725 55.0391 12.5708 54.9537 12.6951C54.8854 12.8016 54.7994 12.8996 54.6958 12.9891C54.5925 13.0962 54.394 13.2752 54.1003 13.526C53.8238 13.759 53.5039 14.019 53.1407 14.3062C52.7947 14.5754 52.4658 14.8181 52.1539 15.0342C51.8593 15.2324 51.6509 15.3501 51.5288 15.3874C51.4593 15.4237 51.3898 15.46 51.3203 15.4964C51.268 15.5148 51.2071 15.5422 51.1376 15.5786C51.0508 15.6327 50.9469 15.7048 50.8257 15.7946C50.7565 15.8485 50.6889 15.99 50.6228 16.2192C50.5564 16.4309 50.4904 16.6601 50.4246 16.9068C50.3761 17.1357 50.3352 17.3031 50.302 17.4089C50.2353 17.6031 50.1863 17.8057 50.155 18.0167C50.1413 18.2274 50.0923 18.43 50.008 18.6245L49.9601 18.8884C49.9282 19.0644 49.8875 19.2405 49.838 19.4168C49.7886 19.5931 49.748 19.778 49.7164 19.9715L49.645 20.3938L49.6455 20.4201L50.2645 19.7249C50.4192 19.5468 50.6426 19.2884 50.9347 18.9499C51.2269 18.6115 51.5448 18.2462 51.8886 17.8542C52.2321 17.4446 52.5761 17.0613 52.9205 16.7044C53.2821 16.3295 53.601 16.0169 53.8772 15.7664C54.1534 15.5159 54.3527 15.3808 54.4751 15.361C54.5102 15.3604 54.5365 15.3599 54.554 15.3596C54.5712 15.3418 54.5886 15.3327 54.6061 15.3324C54.9042 15.327 55.1773 15.3923 55.4253 15.5282C55.6733 15.6641 55.7551 15.8293 55.6709 16.0237C55.5732 16.4464 55.4233 16.8876 55.221 17.3473C55.036 17.7891 54.8772 18.2305 54.7448 18.6713C54.6123 19.1122 54.5677 19.5603 54.6109 20.0156C54.6307 20.138 54.6783 20.3476 54.7537 20.6445C54.8467 20.941 54.9984 21.0874 55.2089 21.0836C55.3842 21.0805 55.5668 20.9895 55.7565 20.8107C55.9641 20.6491 56.1537 20.4616 56.3253 20.248C56.5144 20.0342 56.6691 19.856 56.7893 19.7135C56.8754 19.6243 56.9615 19.535 57.0476 19.4458C57.1334 19.339 57.2369 19.2407 57.3581 19.1508L57.3919 19.5712C57.3581 19.642 57.3243 19.7127 57.2905 19.7835C57.2566 19.8543 57.2228 19.925 57.189 19.9958C57.0697 20.1909 56.9424 20.4299 56.8072 20.713C56.6719 20.9961 56.5091 21.2095 56.3187 21.3532C56.2667 21.3892 56.1006 21.4185 55.8204 21.441C55.5405 21.4811 55.3567 21.5019 55.269 21.5035C55.1638 21.5054 55.067 21.4896 54.9787 21.4561C54.908 21.4223 54.8197 21.3888 54.7138 21.3556C54.3606 21.2216 54.0152 21.0348 53.6777 20.7953C53.3574 20.5379 53.1938 20.2163 53.1869 19.8305C53.1853 19.7429 53.175 19.6554 53.1559 19.568C53.1543 19.4803 53.1613 19.3837 53.177 19.2782C53.1732 19.0678 53.2037 18.8129 53.2686 18.5136C53.3165 18.2496 53.3556 17.9858 53.386 17.7221C53.4339 17.4582 53.473 17.1944 53.5034 16.9307L53.4775 16.9575C53.4086 17.0289 53.3398 17.1003 53.2709 17.1717C53.202 17.2431 53.142 17.3231 53.091 17.4117C52.9883 17.5538 52.9027 17.6694 52.8341 17.7583C52.7827 17.8294 52.688 17.9276 52.5499 18.0528L52.3686 18.2139C52.2475 18.3038 52.1441 18.4109 52.0587 18.5352C51.9729 18.642 51.8874 18.7663 51.8022 18.9081C51.7336 18.997 51.6652 19.0947 51.597 19.2012C51.5459 19.2898 51.4774 19.3787 51.3913 19.468C51.2707 19.5929 51.1502 19.7179 51.0296 19.8428C50.9088 19.9502 50.8057 20.0748 50.7206 20.2167C50.6523 20.3231 50.5587 20.4827 50.4397 20.6953C50.3207 20.9079 50.1927 21.1031 50.0555 21.281C49.9362 21.4761 49.8155 21.5922 49.6934 21.6295ZM50.9708 15.0816C52.237 14.2872 53.369 13.3374 54.3665 12.232C55.3813 11.1088 56.1223 9.87653 56.5895 8.53511C56.6061 8.48219 56.6137 8.42066 56.6125 8.35052C56.6115 8.29792 56.602 8.25424 56.5838 8.21948C56.5829 8.16688 56.5818 8.10551 56.5805 8.03537C56.5805 8.03537 56.5367 8.03615 56.449 8.03772C56.4315 8.03803 56.3964 8.03866 56.3438 8.0396C56.3087 8.04023 56.2735 8.03209 56.2381 8.01518C56.0991 8.08783 55.9339 8.16971 55.7426 8.26083C55.5513 8.35196 55.4038 8.44229 55.3002 8.53185L55.249 8.6117L55.2495 8.638C55.215 8.67369 55.1978 8.69154 55.1978 8.69154C55.1117 8.78078 55.0256 8.87002 54.9395 8.95927C54.8531 9.03097 54.7666 9.10268 54.6802 9.17439C54.5587 9.24672 54.4466 9.35397 54.3439 9.49612L54.2669 9.60274C54.1983 9.69167 54.121 9.78076 54.0349 9.87C53.9485 9.9417 53.8621 10.0134 53.7756 10.0851C53.7237 10.1211 53.612 10.2547 53.4408 10.4858C53.287 10.7165 53.1334 10.9561 52.98 11.2044C52.8263 11.4352 52.7241 11.6036 52.6733 11.7098C52.6567 11.7627 52.64 11.8068 52.6231 11.8422C52.6062 11.8776 52.5717 11.9133 52.5197 11.9493C52.521 12.0194 52.5043 12.0636 52.4695 12.0818L52.5244 12.2123L52.3929 12.2147C52.3767 12.2851 52.3261 12.4 52.2412 12.5594C52.1561 12.7013 52.0787 12.7904 52.0092 12.8267C51.9929 12.8971 51.9087 13.0916 51.7565 13.41C51.6216 13.7106 51.4782 14.0289 51.3263 14.3649C51.1742 14.6834 51.0557 14.9223 50.9708 15.0816ZM59.9111 20.868C59.5955 20.8736 59.2525 20.8184 58.882 20.7022C58.5291 20.5857 58.219 20.4071 57.9516 20.1663C57.7017 19.9252 57.5561 19.6297 57.5148 19.2796C57.5132 19.1919 57.5116 19.1042 57.5101 19.0166C57.526 18.9286 57.5246 18.8497 57.5058 18.7798C57.5049 18.7272 57.4513 18.6756 57.3452 18.6249L57.2649 18.5474C57.1941 18.5135 57.1232 18.471 57.0521 18.4196C56.9807 18.3507 56.9442 18.2724 56.9427 18.1848C56.995 18.1663 57.0386 18.1567 57.0737 18.1561C57.1614 18.1545 57.2404 18.1619 57.3109 18.1782C57.3989 18.1942 57.4779 18.2015 57.5481 18.2003C57.5305 18.2006 57.5387 18.1653 57.5725 18.0946C57.5719 18.0595 57.58 18.0243 57.5969 17.9889C57.6135 17.936 57.6304 17.9006 57.6476 17.8827C57.6652 17.8824 57.6904 17.8206 57.7233 17.6972C57.7558 17.5563 57.7807 17.4769 57.7979 17.4591C58.0299 16.7007 58.3517 16.0547 58.7631 15.5212C59.1917 14.9698 59.7807 14.5558 60.53 14.2793C60.5998 14.2605 60.661 14.2506 60.7137 14.2497C60.7835 14.2309 60.8535 14.2209 60.9236 14.2196C61.0639 14.2171 61.2489 14.2664 61.4788 14.3676C61.7083 14.4512 61.9121 14.5703 62.0903 14.725C62.2857 14.8618 62.3936 15.009 62.4139 15.1665C62.4152 15.2366 62.4163 15.298 62.4172 15.3506C62.4357 15.4029 62.4455 15.4641 62.4468 15.5342C62.4487 15.6394 62.4246 15.7627 62.3745 15.9039L62.2181 15.9856C62.1843 16.0564 62.1501 16.1096 62.1157 16.1453L61.9612 16.3322C61.8234 16.475 61.7725 16.5724 61.8085 16.6244L61.7564 16.6516C61.7564 16.6516 61.7566 16.6604 61.7569 16.6779C61.7569 16.6779 61.7481 16.6781 61.7306 16.6784L61.7564 16.6516L61.7306 16.6784L61.731 16.7047L61.6 16.7334C61.5308 16.7872 61.4705 16.8497 61.4192 16.9208C61.3675 16.9743 61.316 17.0366 61.2646 17.1077C61.0066 17.393 60.6691 17.6446 60.252 17.8625C59.8346 18.0629 59.452 18.2451 59.1041 18.4092C59.0519 18.4277 58.9734 18.4554 58.8688 18.4924C58.7815 18.5115 58.7207 18.5476 58.6866 18.6009C58.618 18.6898 58.5762 18.8046 58.5612 18.9451C58.5462 19.0857 58.5398 19.2174 58.542 19.3402C58.5808 19.5499 58.637 19.7506 58.7106 19.9423C58.8017 20.1336 58.9788 20.2269 59.2418 20.2222L59.4785 20.218C59.5662 20.2164 59.6537 20.2061 59.7411 20.187C59.846 20.1675 59.9509 20.1481 60.0558 20.1287L60.238 20.0202L60.2648 20.046C60.3693 20.0091 60.552 19.9269 60.8129 19.7995C61.0737 19.672 61.3258 19.5447 61.569 19.4176C61.812 19.2729 61.9593 19.1738 62.011 19.1203L62.0368 19.0935L62.0622 19.0404L62.1397 18.9601C62.4513 18.7265 62.7547 18.5281 63.0499 18.365C63.3449 18.1843 63.6301 17.9512 63.9057 17.6656L63.9592 17.7173L64.0381 17.7159C64.0228 17.8389 63.9807 17.9362 63.9118 18.0076C63.8426 18.0614 63.7649 18.133 63.6788 18.2222L63.6023 18.3551C63.3978 18.692 63.0794 19.031 62.647 19.372C62.2321 19.7127 61.8513 20.0001 61.5047 20.2344C61.3832 20.3067 61.2621 20.3966 61.1412 20.504C61.02 20.5938 60.881 20.6665 60.7241 20.7219C60.4276 20.8149 60.1566 20.8636 59.9111 20.868ZM59.0111 17.6216C59.1163 17.6197 59.1865 17.6184 59.2215 17.6178C59.2738 17.5993 59.3437 17.5806 59.431 17.5614C59.7783 17.3623 60.0986 17.1285 60.392 16.8602C60.7029 16.5915 60.9963 16.3232 61.2721 16.0551C61.305 15.9318 61.3908 15.825 61.5295 15.7348L61.6333 15.654C61.6678 15.6183 61.6934 15.5828 61.7103 15.5474C61.7448 15.5117 61.7617 15.4763 61.7611 15.4413C61.7783 15.4234 61.7684 15.3622 61.7315 15.2576L61.7028 15.1266L61.7019 15.074C61.649 15.0574 61.5787 15.0499 61.491 15.0514C61.3692 15.1062 61.2479 15.1873 61.127 15.2947C61.0061 15.4021 60.8757 15.4659 60.7358 15.4859C60.6675 15.5924 60.521 15.7353 60.2961 15.9147C60.1753 16.0221 60.0544 16.1295 59.9336 16.2369C59.8299 16.3265 59.7609 16.3891 59.7264 16.4248C59.6059 16.5498 59.4603 16.7453 59.2896 17.0115C59.1187 17.2601 59.0258 17.4635 59.0111 17.6216ZM71.0626 20.8528C70.7294 20.8588 70.3509 20.7778 69.9269 20.61C69.5033 20.4597 69.1925 20.246 68.9946 19.9689C68.9226 19.865 68.8768 19.7605 68.8574 19.6556C68.838 19.5507 68.8187 19.4546 68.7996 19.3672C68.7758 19.0169 68.7798 18.7449 68.8114 18.5514C68.8427 18.3404 68.9004 18.1376 68.9847 17.9432C69.0689 17.7487 69.1611 17.5103 69.2613 17.2278C69.2779 17.1749 69.3465 17.086 69.467 16.9611C69.5876 16.8361 69.7081 16.7112 69.8287 16.5862C69.9664 16.4435 70.0524 16.3454 70.0865 16.2922C70.1723 16.1854 70.2407 16.0877 70.2918 15.9991C70.3603 15.9102 70.4644 15.847 70.6041 15.8094C70.6388 15.7912 70.665 15.782 70.6825 15.7817C70.7176 15.781 70.7437 15.7718 70.761 15.7539C70.8283 15.5949 70.905 15.4707 70.9911 15.3815C71.0944 15.2744 71.2067 15.1759 71.3279 15.0861C71.4315 14.9965 71.6399 14.8788 71.953 14.7328C72.2836 14.5866 72.5103 14.5124 72.6331 14.5102C72.7208 14.5086 72.8 14.5248 72.8707 14.5586C72.959 14.5921 73.047 14.608 73.1347 14.6065L73.2131 14.5788C73.2319 14.6486 73.3032 14.7087 73.4269 14.7591C73.5508 14.8271 73.719 14.9117 73.9313 15.0132C74.1611 15.1143 74.2861 15.2349 74.3061 15.3748C74.307 15.4274 74.2739 15.5333 74.2065 15.6923C74.1568 15.8511 74.0805 16.0016 73.9778 16.1437C73.8926 16.2856 73.8064 16.366 73.719 16.3851C73.7175 16.2975 73.7162 16.2273 73.7153 16.1747C73.7319 16.1218 73.7483 16.0601 73.7646 15.9897C73.7636 15.9371 73.7629 15.8932 73.7622 15.8582C73.7788 15.8052 73.7866 15.7525 73.7857 15.6999C73.7666 15.6125 73.7301 15.5342 73.6763 15.465C73.6224 15.3958 73.5516 15.362 73.464 15.3636C73.236 15.3677 72.9749 15.4776 72.6805 15.6933C72.3862 15.9091 72.1099 16.1508 71.8516 16.4185C71.5929 16.6687 71.3951 16.8827 71.2579 17.0606C70.9999 17.3459 70.777 17.6305 70.5891 17.9145C70.4188 18.1982 70.2932 18.5337 70.2124 18.921C70.1971 19.0441 70.1818 19.1671 70.1664 19.2902C70.1686 19.4129 70.171 19.5444 70.1735 19.6847C70.2095 19.7367 70.2281 19.7978 70.2294 19.8679C70.2482 19.9377 70.2756 19.9986 70.3116 20.0506C70.3469 20.0675 70.365 20.0935 70.3656 20.1286C70.3837 20.1633 70.4017 20.1893 70.4196 20.2065L70.4468 20.2587L70.4473 20.285L70.6577 20.2812C70.8331 20.2781 70.9818 20.2579 71.1039 20.2206C71.226 20.1833 71.3483 20.1549 71.4707 20.1351C71.5578 20.0985 71.645 20.0706 71.7324 20.0515C71.8369 20.0146 71.9418 19.9951 72.047 19.9933C72.1507 19.9037 72.2634 19.8315 72.3852 19.7767C72.5067 19.7044 72.6283 19.6408 72.7501 19.586L72.7492 19.5334C72.8898 19.5485 73.0205 19.5023 73.1414 19.3949C73.2798 19.2872 73.4011 19.2061 73.5054 19.1516C73.9046 18.9164 74.2863 18.6816 74.6504 18.447C75.0146 18.2125 75.3608 17.952 75.6889 17.6655C75.7409 17.6294 75.8619 17.5308 76.052 17.3695C76.242 17.2083 76.3546 17.1273 76.3896 17.1267C76.3896 17.1267 76.4069 17.1089 76.4413 17.0732C76.5832 17.1583 76.6549 17.2448 76.6564 17.3324C76.6583 17.4376 76.6076 17.5438 76.5043 17.6509C76.4009 17.758 76.3059 17.8386 76.2192 17.8928C76.1497 17.9291 76.0803 17.9742 76.0111 18.028C75.9591 18.064 75.9072 18.1001 75.8552 18.1361C75.7857 18.1724 75.7163 18.2175 75.6471 18.2713C75.5951 18.3073 75.5521 18.352 75.5179 18.4052C75.4841 18.476 75.4414 18.5381 75.3897 18.5917C75.3556 18.6449 75.2949 18.6811 75.2075 18.7002L75.1821 18.7532C75.0606 18.8256 74.9393 18.9067 74.8181 18.9965C74.6966 19.0689 74.5753 19.15 74.4541 19.2398C74.3849 19.2937 74.3328 19.3209 74.2977 19.3216C74.1064 19.4127 73.907 19.539 73.6994 19.7006C73.5434 19.8087 73.4052 19.9251 73.2846 20.0501C73.1638 20.1575 73.0071 20.2217 72.8145 20.2427C72.7816 20.366 72.6952 20.4377 72.5552 20.4578C72.4328 20.4775 72.3281 20.5057 72.241 20.5423C71.8762 20.7418 71.4834 20.8453 71.0626 20.8528ZM84.2067 20.5126C84.0313 20.5157 83.8289 20.4755 83.5994 20.3919C83.3701 20.3258 83.1843 20.2327 83.0418 20.1124C82.6141 19.7342 82.3608 19.3002 82.2819 18.8105C82.2026 18.3032 82.1408 17.7869 82.0963 17.2615C82.0277 17.3504 81.9332 17.4573 81.8126 17.5823C81.7093 17.6894 81.6146 17.7875 81.5285 17.8768C81.4768 17.9303 81.4255 18.0014 81.3744 18.09C81.3231 18.1611 81.2717 18.2322 81.2204 18.3033C81.0998 18.4282 80.9876 18.5267 80.8836 18.5987C80.7794 18.6532 80.6842 18.725 80.5981 18.8143C80.5636 18.85 80.495 18.9389 80.3923 19.0811C80.3585 19.1518 80.307 19.2141 80.2378 19.268C80.1683 19.3043 80.1079 19.358 80.0565 19.4291C79.9341 19.4488 79.83 19.5121 79.7442 19.6189C79.6756 19.7078 79.5984 19.8056 79.5126 19.9124C79.3386 19.9857 79.1474 20.0856 78.9392 20.2121C78.7482 20.3207 78.5562 20.3768 78.3633 20.3802C78.1179 20.3846 77.845 20.3281 77.5447 20.2107C77.2619 20.093 77.0047 19.9309 76.773 19.7246C76.541 19.5007 76.4051 19.2576 76.3653 18.9952L76.339 18.9957L76.3305 18.5222C76.3255 18.2417 76.3573 18.0569 76.4259 17.968C76.46 17.9148 76.4852 17.8529 76.5015 17.7825C76.5174 17.6945 76.5337 17.624 76.5503 17.5711L76.9091 17.0385C76.9602 16.9499 77.0889 16.7897 77.2952 16.558C77.5191 16.326 77.7517 16.0938 77.9931 15.8614C78.2346 15.6291 78.4071 15.4682 78.5107 15.3786C78.6488 15.2534 78.8567 15.1093 79.1345 14.9465C79.4122 14.7837 79.6899 14.6208 79.9677 14.458C80.2629 14.2949 80.4974 14.1679 80.6712 14.0771L80.776 14.0489C80.8624 13.9772 81.0014 13.9045 81.193 13.8309C81.4019 13.7395 81.55 13.6842 81.6374 13.6651C81.7419 13.6282 81.9082 13.6077 82.1362 13.6036C82.3638 13.582 82.5388 13.5613 82.6613 13.5416C82.7665 13.5397 82.8538 13.5206 82.9233 13.4843L83.4785 13.6322C83.6717 13.6463 83.9012 13.7299 84.1671 13.883C84.4329 14.0361 84.5768 14.2353 84.5987 14.4804C84.636 14.6026 84.6289 14.6992 84.5776 14.7702L84.3385 14.643C84.2123 14.4523 84.0349 14.3414 83.8064 14.3104C83.595 14.2616 83.3753 14.2392 83.1474 14.2433C82.6564 14.2521 82.1326 14.3842 81.5758 14.6397C81.0188 14.8777 80.4895 15.1941 79.9879 15.589C79.4859 15.9663 79.0373 16.3778 78.6418 16.8233C78.2639 17.2686 77.9908 17.6945 77.8227 18.1009C77.8061 18.1538 77.7895 18.2067 77.7729 18.2596C77.7739 18.3122 77.7659 18.3562 77.749 18.3916C77.6995 18.5679 77.6499 18.7354 77.6001 18.8942C77.5678 19.0526 77.5622 19.2281 77.5832 19.4207C77.5854 19.5434 77.6042 19.6133 77.6396 19.6302C77.6749 19.6471 77.7462 19.7072 77.8533 19.8105L78.0651 19.8857L78.2478 19.8035L78.4568 19.7208C78.5961 19.6657 78.7089 19.5935 78.795 19.5043C78.8645 19.468 78.9255 19.4493 78.9781 19.4484C79.0304 19.4299 79.0564 19.4119 79.0561 19.3944C79.1782 19.3571 79.2388 19.3122 79.2379 19.2596C79.2542 19.1891 79.3055 19.118 79.3919 19.0463C79.6506 18.7961 79.9006 18.5549 80.142 18.3225C80.4006 18.0723 80.6416 17.8137 80.8648 17.5466C80.985 17.4041 81.1313 17.2437 81.3035 17.0652C81.4932 16.8864 81.6654 16.7079 81.8201 16.5297C81.8718 16.4762 81.9147 16.4228 81.9488 16.3696C82.0002 16.2985 82.0429 16.2363 82.077 16.1831C82.1622 16.0412 82.2903 15.846 82.4612 15.5974C82.6319 15.3312 82.8312 15.1961 83.0591 15.192C83.0939 15.1739 83.1463 15.1642 83.2165 15.1629C83.3918 15.1598 83.5333 15.2274 83.6411 15.3658C83.7485 15.4867 83.8034 15.6172 83.8059 15.7575C83.8091 15.9329 83.777 16.1001 83.7096 16.2591C83.642 16.4007 83.5921 16.5507 83.5598 16.7091C83.4969 17.1137 83.4689 17.5088 83.4758 17.8946C83.478 18.0173 83.4802 18.1401 83.4824 18.2628C83.4846 18.3856 83.4957 18.5169 83.5157 18.6569C83.5749 19.0242 83.765 19.354 84.0859 19.6465L84.1916 19.6709C84.4346 19.5262 84.5987 19.383 84.6838 19.2411C84.7865 19.099 84.9237 18.9211 85.0953 18.7076C85.0953 18.7076 85.1126 18.6985 85.1474 18.6803C85.1818 18.6446 85.2078 18.6266 85.2254 18.6263C85.2955 18.6251 85.3312 18.6595 85.3324 18.7296L85.3329 18.7559C85.3342 18.8261 85.3267 18.8964 85.3104 18.9668C85.2938 19.0197 85.2775 19.0902 85.2615 19.1782C85.2478 19.3889 85.1474 19.6626 84.9605 19.9992C84.7911 20.3355 84.5398 20.5066 84.2067 20.5126ZM85.5351 21.6728C85.4299 21.6747 85.3414 21.6324 85.2697 21.546C85.1808 21.4774 85.1003 21.3912 85.0283 21.2872L84.9203 21.1313C84.8846 21.0968 84.8487 21.0536 84.8127 21.0016C84.7592 20.95 84.6973 20.9248 84.6272 20.926C84.6256 20.8383 84.6068 20.7685 84.5708 20.7165C84.5348 20.6646 84.516 20.5947 84.5145 20.5071C84.8736 19.992 85.3301 19.5278 85.884 19.1144C86.4376 18.6836 87.0011 18.3139 87.5744 18.0055L87.6533 18.0041C87.7566 17.897 87.8866 17.807 88.0431 17.734C88.1997 17.661 88.3295 17.5622 88.4325 17.4376C88.1494 17.3024 87.8668 17.1934 87.5847 17.1107C87.3198 17.0102 87.0629 16.8657 86.814 16.6772C86.6007 16.5232 86.3956 16.3339 86.1987 16.1094C86.0014 15.8674 85.9004 15.6148 85.8957 15.3518C85.8885 14.9485 85.9866 14.5521 86.1902 14.1626C86.4109 13.7552 86.6775 13.461 86.99 13.28C87.058 13.156 87.231 13.0214 87.509 12.8761C87.787 12.7308 88.074 12.5941 88.3699 12.466C88.6658 12.338 88.8834 12.2464 89.0228 12.1913C89.1439 12.1014 89.2747 12.0552 89.4149 12.0527L89.7541 11.8888L89.7804 11.8883C89.9557 11.8852 90.1572 11.8728 90.3848 11.8512C90.6125 11.8296 90.7964 11.8175 90.9367 11.815C91.0595 11.8128 91.227 11.8624 91.4393 11.9639C91.6516 12.0653 91.8468 12.1934 92.025 12.3481C92.2028 12.4852 92.293 12.6239 92.2955 12.7642C92.3146 12.8516 92.2733 12.9926 92.1715 13.1874C92.087 13.3643 91.9849 13.5415 91.8653 13.7191C91.7629 13.8788 91.677 13.9768 91.6075 14.0131L91.529 14.0408L91.4238 14.0427L91.3952 13.9117C91.4813 13.8224 91.5577 13.6807 91.6244 13.4866C91.6911 13.2925 91.7231 13.1253 91.7206 12.985C91.7159 12.722 91.5645 12.5931 91.2664 12.5984C91.056 12.6022 90.8462 12.641 90.6371 12.7149C90.4451 12.771 90.2533 12.8358 90.0617 12.9094C89.3819 13.1496 88.782 13.4409 88.2619 13.7835C87.7415 14.1085 87.2856 14.6078 86.8942 15.2813C86.7749 15.4764 86.7167 15.6529 86.7195 15.8107C86.7242 16.0737 86.9564 16.3063 87.4161 16.5086C87.4865 16.5249 87.637 16.6011 87.8674 16.7373C88.1151 16.8557 88.354 16.9742 88.5842 17.0929C88.814 17.194 88.9289 17.2446 88.9289 17.2446C89.0166 17.243 89.1037 17.2064 89.1901 17.1347C89.2762 17.0454 89.354 16.9826 89.4235 16.9463C89.7191 16.8007 90.0842 16.6188 90.5188 16.4005C90.9531 16.1647 91.3277 16.0265 91.6427 15.9858C91.695 15.9673 91.7473 15.9488 91.7996 15.9303C91.8694 15.9116 91.9393 15.8928 92.0091 15.874C92.0968 15.8724 92.1589 15.9152 92.1955 16.0022C92.162 16.0905 92.0842 16.1533 91.9621 16.1905C91.8757 16.2623 91.7456 16.3435 91.5718 16.4343C91.3977 16.5076 91.2498 16.5716 91.128 16.6264C91.0059 16.6637 90.9019 16.7357 90.8161 16.8425C90.7995 16.8954 90.7479 16.9489 90.6611 17.0031C90.5399 17.093 90.3494 17.2279 90.0895 17.408C89.8469 17.5702 89.736 17.7476 89.757 17.9402C89.7579 17.9928 89.8121 18.0795 89.9195 18.2004C90.0441 18.3034 90.116 18.3986 90.1351 18.4859C90.1551 18.6259 90.1235 18.8194 90.0402 19.0664C89.9745 19.3132 89.8813 19.499 89.7608 19.624L89.789 19.7287C89.6669 19.766 89.5889 19.82 89.5551 19.8907C89.5209 19.944 89.4696 20.0151 89.401 20.104C89.3497 20.1751 89.2892 20.2288 89.2197 20.2651C89.1505 20.3189 89.0546 20.347 88.9318 20.3492L88.8031 20.5093L88.7768 20.5098C88.6541 20.512 88.5497 20.5577 88.4636 20.647C88.3778 20.7537 88.2918 20.8517 88.2057 20.941L88.1263 20.9161C88.0387 20.9177 87.9165 20.9549 87.76 21.0279C87.6213 21.1181 87.5084 21.1815 87.4213 21.2181C87.2995 21.2729 87.1688 21.3191 87.0292 21.3567C86.8895 21.3942 86.732 21.4146 86.5567 21.4177C86.5041 21.4187 86.4515 21.4196 86.3989 21.4206C86.3462 21.4215 86.2935 21.4137 86.2406 21.3971C86.2233 21.4149 86.1972 21.4242 86.1621 21.4248L86.0842 21.4788C85.9796 21.5158 85.901 21.5347 85.8484 21.5356C85.7432 21.5375 85.6899 21.5034 85.6887 21.4333C85.7053 21.3803 85.7394 21.3271 85.7911 21.2736C85.8255 21.2379 85.9036 21.1926 86.0254 21.1378C86.1476 21.1006 86.2694 21.0458 86.3909 20.9734C86.5302 20.9183 86.6518 20.8547 86.7558 20.7827C86.8776 20.7279 86.9734 20.6911 87.0432 20.6723C87.0605 20.6545 87.0777 20.6366 87.0949 20.6188C87.1121 20.601 87.1293 20.5831 87.1466 20.5653L87.3025 20.4572C87.5452 20.295 87.8046 20.0887 88.0807 19.8382C88.3566 19.5701 88.5883 19.2853 88.7759 18.9838C88.9809 18.682 89.0636 18.3998 89.0238 18.1374C89.0232 18.1024 89.0133 18.0411 88.9942 17.9538C88.9751 17.8664 88.9393 17.8232 88.8867 17.8242C88.8341 17.8251 88.7733 17.8613 88.7044 17.9327C88.6356 18.0041 88.5839 18.0576 88.5495 18.0933C88.4283 18.1832 88.2896 18.2733 88.1333 18.3638C87.9946 18.454 87.8561 18.553 87.7177 18.6607C87.5445 18.7866 87.3892 18.9297 87.2517 19.09C87.114 19.2328 86.9587 19.3759 86.7858 19.5193C86.561 19.6987 86.3451 19.8867 86.1381 20.0834C85.9484 20.2622 85.759 20.4585 85.5698 20.6724C85.4671 20.8145 85.4174 20.9733 85.4205 21.1486C85.4393 21.2185 85.4668 21.2881 85.5032 21.3576C85.5398 21.4447 85.5677 21.5319 85.5868 21.6193L85.5614 21.6723L85.5351 21.6728ZM94.2272 20.2545C93.9116 20.2601 93.5685 20.2049 93.1981 20.0887C92.8452 19.9722 92.5351 19.7936 92.2677 19.5528C92.0178 19.3117 91.8722 19.0162 91.8308 18.6661C91.8293 18.5784 91.8277 18.4907 91.8261 18.4031C91.8421 18.3151 91.8407 18.2362 91.8219 18.1663C91.821 18.1137 91.7674 18.0621 91.6613 18.0114L91.5809 17.9339C91.5102 17.9 91.4393 17.8575 91.3682 17.8061C91.2968 17.7372 91.2603 17.6589 91.2587 17.5713C91.311 17.5528 91.3547 17.5432 91.3898 17.5426C91.4775 17.541 91.5565 17.5484 91.627 17.5647C91.715 17.5807 91.794 17.588 91.8642 17.5868C91.8466 17.5871 91.8548 17.5518 91.8886 17.4811C91.888 17.446 91.8961 17.4108 91.913 17.3754C91.9296 17.3225 91.9465 17.2871 91.9637 17.2692C91.9813 17.2689 92.0065 17.2071 92.0393 17.0837C92.0719 16.9428 92.0968 16.8634 92.114 16.8456C92.346 16.0872 92.6677 15.4412 93.0792 14.9077C93.5078 14.3563 94.0968 13.9423 94.8461 13.6658C94.9159 13.647 94.9771 13.6371 95.0297 13.6362C95.0996 13.6174 95.1695 13.6074 95.2397 13.6061C95.38 13.6036 95.565 13.6529 95.7948 13.7541C96.0244 13.8377 96.2282 13.9568 96.4064 14.1115C96.6018 14.2483 96.7096 14.3955 96.73 14.553C96.7312 14.6231 96.7323 14.6845 96.7333 14.7371C96.7518 14.7894 96.7616 14.8506 96.7629 14.9207C96.7648 15.026 96.7407 15.1492 96.6906 15.2904L96.5342 15.3721C96.5003 15.4429 96.4662 15.4961 96.4318 15.5318L96.2772 15.7187C96.1395 15.8615 96.0886 15.9589 96.1246 16.0109L96.0725 16.0381C96.0725 16.0381 96.0726 16.0469 96.0729 16.0644C96.0729 16.0644 96.0642 16.0646 96.0466 16.0649L96.0725 16.0381L96.0466 16.0649L96.0471 16.0912L95.9161 16.1199C95.8469 16.1737 95.7866 16.2362 95.7352 16.3073C95.6836 16.3608 95.6321 16.4231 95.5807 16.4942C95.3227 16.7795 94.9852 17.0311 94.5681 17.249C94.1507 17.4494 93.7681 17.6316 93.4202 17.7957C93.3679 17.8142 93.2895 17.8419 93.1849 17.8789C93.0975 17.898 93.0368 17.9341 93.0027 17.9874C92.9341 18.0763 92.8923 18.1911 92.8773 18.3316C92.8622 18.4722 92.8558 18.6039 92.858 18.7267C92.8969 18.9364 92.9531 19.1372 93.0267 19.3288C93.1178 19.5201 93.2948 19.6134 93.5579 19.6087L93.7946 19.6045C93.8823 19.6029 93.9698 19.5926 94.0571 19.5735C94.162 19.554 94.2669 19.5346 94.3718 19.5152L94.5541 19.4067L94.5808 19.4325C94.6854 19.3956 94.8681 19.3134 95.1289 19.186C95.3898 19.0585 95.6418 18.9312 95.8851 18.8041C96.1281 18.6594 96.2754 18.5603 96.3271 18.5068L96.3529 18.48L96.3783 18.4269L96.4558 18.3466C96.7673 18.113 97.0707 17.9146 97.366 17.7515C97.661 17.5708 97.9462 17.3377 98.2218 17.0521L98.2753 17.1038L98.3542 17.1024C98.3389 17.2254 98.2967 17.3227 98.2279 17.3941C98.1587 17.4479 98.081 17.5195 97.9949 17.6087L97.9184 17.7416C97.7139 18.0785 97.3955 18.4175 96.963 18.7585C96.5482 19.0992 96.1674 19.3866 95.8208 19.6209C95.6993 19.6932 95.5781 19.7831 95.4573 19.8905C95.3361 19.9803 95.1971 20.053 95.0402 20.1084C94.7437 20.2014 94.4727 20.2501 94.2272 20.2545ZM93.3272 17.0081C93.4324 17.0062 93.5025 17.0049 93.5376 17.0043C93.5899 16.9858 93.6597 16.9671 93.7471 16.9479C94.0943 16.7488 94.4147 16.515 94.708 16.2467C95.019 15.978 95.3124 15.7097 95.5882 15.4416C95.6211 15.3183 95.7069 15.2115 95.8456 15.1213L95.9494 15.0405C95.9838 15.0048 96.0095 14.9693 96.0264 14.9339C96.0609 14.8982 96.0778 14.8628 96.0771 14.8278C96.0944 14.8099 96.0845 14.7487 96.0475 14.6441L96.0189 14.5131L96.018 14.4605C95.965 14.4439 95.8947 14.4364 95.8071 14.4379C95.6853 14.4927 95.5639 14.5738 95.4431 14.6812C95.3222 14.7886 95.1918 14.8524 95.0518 14.8724C94.9836 14.9789 94.837 15.1218 94.6122 15.3012C94.4914 15.4086 94.3705 15.516 94.2496 15.6234C94.146 15.713 94.0769 15.7756 94.0425 15.8113C93.922 15.9363 93.7764 16.1318 93.6057 16.398C93.4348 16.6466 93.3419 16.85 93.3272 17.0081Z" fill="#C53333" style="fill:#C53333;fill:color(display-p3 0.7725 0.2000 0.2000);fill-opacity:1;"/>
<path d="M5.41876 40.0957C5.30464 40.2172 5.19051 40.3387 5.07639 40.4602C5.32795 40.688 5.57952 40.9158 5.83108 41.1436C5.94071 41.0181 6.05035 40.8925 6.15998 40.7669C6.34949 40.5499 6.53792 40.3326 6.7257 40.1139C10.023 36.3082 13.1203 31.9273 13.9548 26.8283L13.5792 26.9104C13.6435 26.9973 13.7077 27.0842 13.772 27.171C13.9425 27.4014 14.1129 27.6318 14.2834 27.8622C14.3199 27.9116 14.3564 27.9609 14.3929 28.0102C14.4929 27.939 14.5929 27.8678 14.6929 27.7966C14.6582 27.746 14.6235 27.6953 14.5888 27.6447C14.4269 27.4082 14.2649 27.1718 14.1029 26.9354C14.0418 26.8462 13.9808 26.7571 13.9197 26.6679L13.5441 26.75C12.5433 31.7001 9.40128 35.8188 6.00232 39.4696C5.80877 39.679 5.61441 39.8874 5.41876 40.0957Z" fill="#C53333" style="fill:#C53333;fill:color(display-p3 0.7725 0.2000 0.2000);fill-opacity:1;"/>
</svg>
