<svg width="24" height="24" viewBox="0 0 24 24" fill="none" xmlns="http://www.w3.org/2000/svg">
<path d="M2.85742 11.1426L17.7822 11.1426C17.1763 10.7231 16.5632 10.2417 15.9766 9.70117C14.3191 8.17384 12.8071 6.11834 12.3027 3.59668L13.9834 3.26074C14.3934 5.31017 15.644 7.0641 17.1387 8.44141C18.6332 9.81846 20.3116 10.7619 21.4512 11.2002L21.4512 12.7998C20.3116 13.2381 18.6333 14.1815 17.1387 15.5586C15.6439 16.936 14.3933 18.6897 13.9834 20.7393L12.3027 20.4033C12.8071 17.8815 14.319 15.8252 15.9766 14.2979C16.5629 13.7576 17.1756 13.2767 17.7812 12.8574L2.85742 12.8574L2.85742 11.1426Z" fill="#202020" fill="black" />
</svg>
