<svg xmlns="http://www.w3.org/2000/svg" fill="none" viewBox="0 0 44 44">
  <path fill="#000" d="M5.357 0c-.74 0-1.429.14-2.067.42A5.622 5.622 0 0 0 1.57 1.608 5.359 5.359 0 0 0 .42 3.329 4.98 4.98 0 0 0 0 5.357c0 1.045.268 1.99.803 2.83a6.037 6.037 0 0 0 2.105 1.914l.574.306c.382.178.867.42 1.454.727.612.306 1.3.663 2.066 1.071l2.372 1.186c1.887.97 4.017 2.066 6.39 3.29.204.128.42.103.65-.076.23-.204.268-.459.115-.765L10.177 3.06A5.347 5.347 0 0 0 8.227.88C7.383.293 6.426 0 5.356 0Zm0 16.682c-.74 0-1.429.14-2.067.42A5.98 5.98 0 0 0 1.57 18.25 5.36 5.36 0 0 0 .42 19.972 5.073 5.073 0 0 0 0 22.038c0 .74.14 1.429.42 2.066.281.638.664 1.2 1.149 1.684a6.42 6.42 0 0 0 1.721 1.11c.638.28 1.327.42 2.067.42.714 0 1.39-.14 2.027-.42a5.23 5.23 0 0 0 1.684-1.11 5.48 5.48 0 0 0 1.148-1.684c.28-.637.42-1.326.42-2.066 0-.74-.14-1.428-.42-2.066a5.36 5.36 0 0 0-1.148-1.722 4.933 4.933 0 0 0-1.684-1.147 4.98 4.98 0 0 0-2.027-.421ZM16.529 28.16c.153-.306.114-.548-.115-.727-.23-.204-.447-.242-.65-.115a3545.854 3545.854 0 0 1-6.39 3.29c-.816.409-1.607.817-2.372 1.225l-2.066 1.033c-.587.306-1.072.561-1.454.765l-.574.268A5.913 5.913 0 0 0 .803 35.85C.268 36.667 0 37.598 0 38.644c0 .74.14 1.428.42 2.066A5.98 5.98 0 0 0 1.57 42.43c.51.485 1.084.868 1.721 1.148.638.28 1.327.421 2.067.421 1.07 0 2.027-.28 2.87-.842.866-.586 1.517-1.326 1.95-2.219L16.53 28.16ZM21.962 44c.714 0 1.39-.14 2.028-.42a4.93 4.93 0 0 0 1.683-1.149 5.979 5.979 0 0 0 1.148-1.721c.28-.638.42-1.327.42-2.066 0-.715-.14-1.39-.42-2.028a4.931 4.931 0 0 0-1.148-1.684 4.93 4.93 0 0 0-1.683-1.148 4.981 4.981 0 0 0-2.028-.42c-.74 0-1.441.14-2.105.42a5.479 5.479 0 0 0-1.683 1.148 4.932 4.932 0 0 0-1.148 1.684 4.979 4.979 0 0 0-.42 2.028c0 .74.14 1.428.42 2.066a5.98 5.98 0 0 0 1.148 1.721 5.478 5.478 0 0 0 1.683 1.148c.664.28 1.365.421 2.105.421Zm0-16.682c.714 0 1.39-.14 2.028-.42a5.228 5.228 0 0 0 1.683-1.11 5.477 5.477 0 0 0 1.148-1.684c.28-.637.42-1.326.42-2.066 0-.74-.14-1.428-.42-2.066a5.36 5.36 0 0 0-1.148-1.722 4.932 4.932 0 0 0-1.683-1.147 4.98 4.98 0 0 0-2.028-.421c-.74 0-1.441.14-2.105.42a5.36 5.36 0 0 0-2.831 2.87 5.072 5.072 0 0 0-.42 2.066c0 .74.14 1.429.42 2.066.28.638.663 1.2 1.148 1.684.485.459 1.046.829 1.683 1.11.664.28 1.365.42 2.105.42Zm0-16.682c.714 0 1.39-.14 2.028-.42a5.23 5.23 0 0 0 1.683-1.11 5.478 5.478 0 0 0 1.148-1.683c.28-.638.42-1.327.42-2.066 0-.715-.14-1.39-.42-2.028a5.358 5.358 0 0 0-1.148-1.722A4.688 4.688 0 0 0 23.99.421 4.98 4.98 0 0 0 21.962 0c-.74 0-1.441.14-2.105.42a5.178 5.178 0 0 0-1.683 1.187 5.36 5.36 0 0 0-1.148 1.722 4.98 4.98 0 0 0-.42 2.028c0 .74.14 1.428.42 2.066a5.48 5.48 0 0 0 1.148 1.683c.485.46 1.046.83 1.683 1.11.664.28 1.365.42 2.105.42ZM38.644 44c.714 0 1.39-.14 2.027-.42a5.357 5.357 0 0 0 1.722-1.149c.51-.51.905-1.084 1.186-1.721.28-.638.421-1.327.421-2.066 0-1.046-.28-1.977-.842-2.794a5.605 5.605 0 0 0-2.066-1.95l-.574-.269a66.31 66.31 0 0 0-1.492-.765 77.895 77.895 0 0 0-2.066-1.033c-.765-.408-1.543-.816-2.334-1.224-1.887-.97-4.017-2.066-6.39-3.29-.204-.128-.42-.09-.65.114-.23.179-.268.42-.115.727l6.352 12.78a5.717 5.717 0 0 0 1.913 2.218c.867.561 1.836.842 2.908.842Zm0-16.682c.714 0 1.39-.14 2.027-.42a5.709 5.709 0 0 0 1.722-1.11A5.072 5.072 0 0 0 44 22.038c0-.74-.14-1.428-.42-2.066a5.073 5.073 0 0 0-1.187-1.722 5.359 5.359 0 0 0-1.722-1.147 4.98 4.98 0 0 0-2.027-.421c-.74 0-1.429.14-2.067.42a5.479 5.479 0 0 0-1.683 1.148 5.713 5.713 0 0 0-1.11 1.722 5.074 5.074 0 0 0-.42 2.066c0 .74.14 1.429.42 2.066.28.638.65 1.2 1.11 1.684a5.85 5.85 0 0 0 1.683 1.11c.638.28 1.327.42 2.067.42Zm2.448-17.217a5.712 5.712 0 0 0 2.066-1.913A4.991 4.991 0 0 0 44 5.357c0-.715-.14-1.39-.42-2.028a5.072 5.072 0 0 0-1.187-1.722A5.072 5.072 0 0 0 40.671.421 4.98 4.98 0 0 0 38.644 0c-1.072 0-2.041.293-2.908.88a5.437 5.437 0 0 0-1.913 2.18L27.47 15.84c-.153.306-.114.561.115.765.23.179.447.204.65.077 2.373-1.225 4.503-2.321 6.39-3.29.79-.409 1.569-.804 2.334-1.187.79-.408 1.48-.765 2.066-1.071.612-.306 1.11-.549 1.492-.727l.574-.306Z"/>
</svg>
