<svg xmlns="http://www.w3.org/2000/svg" fill="none" viewBox="0 0 82 43">
  <path fill="#000" d="M.946 15.656c0-.377.108-.734.322-1.07.222-.343.513-.678.874-1.007.36-.336.773-.675 1.237-1.018.471-.342.956-.713 1.456-1.112.499-.399.994-.829 1.486-1.29.5-.47.953-.994 1.362-1.574A9.195 9.195 0 0 0 9.357 4.25c-2.149.196-3.583.396-4.304.598-.721.196-1.265.427-1.632.693-.36.266-.541.563-.541.892 0 .329.024.598.073.808.055.203.114.388.176.556l.167.45a.942.942 0 0 1 .083.358c0 .189-.236.395-.707.619-.43.203-.745.304-.946.304a.905.905 0 0 1-.562-.21 3.218 3.218 0 0 1-.53-.566C.211 8.186 0 7.637 0 7.105c0-.531.132-.983.395-1.353a3.57 3.57 0 0 1 1.06-.966c.451-.272.978-.5 1.58-.682a18.068 18.068 0 0 1 1.924-.461c.68-.126 1.376-.228 2.09-.304.72-.077 1.424-.144 2.11-.2l1.945-.178a23.336 23.336 0 0 0 1.632-.2c1.019-.167 1.556-.391 1.612-.671.055-.28.131-.539.228-.776.097-.245.212-.462.343-.651.292-.42.607-.63.947-.63.34 0 .617.172.831.515.208.328.312.678.312 1.049 0 .364-.083.654-.25.87-.166.217-.398.41-.696.578-.291.16-.641.3-1.05.42-.409.118-.852.22-1.33.304-.756.133-1.81.259-3.161.377.014.308.02.605.02.892 0 .28-.006.63-.02 1.05-.007.412-.039.93-.094 1.552a32.995 32.995 0 0 1-.198 1.858 31.877 31.877 0 0 1-.26 1.73c-.193 1.12-.388 1.91-.582 2.372a9.537 9.537 0 0 1-.665 1.332 10.6 10.6 0 0 1-.853 1.218c-.305.384-.63.745-.977 1.08-.346.33-.7.616-1.06.86-.763.525-1.452.788-2.07.788-.61 0-1.233-.354-1.87-1.06-.632-.7-.947-1.42-.947-2.162ZM17.176 11.921c-.832-.042-1.54-.13-2.121-.262a42.756 42.756 0 0 1-2.1 3.347c-.09.147-.295.185-.614.115-.568-.126-.894-.272-.977-.44 1.233-.875 2.1-1.997 2.599-3.368-.728-.336-1.092-.812-1.092-1.427 0-.378.246-.86.739-1.448.464-.574.807-.86 1.029-.86.679 0 1.195.174 1.549.524a.707.707 0 0 1 .208.535c0 .217-.118.584-.354 1.102 1.068.524 2.412.832 4.034.923-.048.483-.25.874-.603 1.175-.097.091-.194.137-.29.137-.493.447-.84.934-1.04 1.458a1.384 1.384 0 0 0-.094.483c0 .65.385.976 1.154.976.52 0 1.095-.235 1.726-.703a6.488 6.488 0 0 0 1.476-1.595c.312-.021.468.108.468.388 0 .238-.146.601-.437 1.091-.284.49-.561.913-.831 1.27-.27.356-.572.706-.905 1.049-.333.343-.686.65-1.06.923-.839.602-1.66.903-2.464.903-1.366 0-2.28-.427-2.745-1.28-.16-.287-.24-.62-.24-.997 0-.385.077-.763.23-1.133.159-.371.374-.731.644-1.081a6.746 6.746 0 0 1 2.11-1.805Z"/>
  <path fill="#000" d="m24.433 18.27-.208.01c-1.096 0-1.93-.273-2.506-.819-.54-.51-.81-1.203-.81-2.077 0-1.203.474-2.354 1.423-3.452a7.384 7.384 0 0 1 3.359-2.235c-.042-.315.072-.574.343-.777.194-.146.513-.22.956-.22.45 0 .884.042 1.3.126.416.084.835.27 1.258.556.915.609 1.372 1.427 1.372 2.455a6.504 6.504 0 0 1-.821 3.169c1.192-.259 2.235-1.063 3.13-2.413.311-.021.467.108.467.388 0 .112-.034.248-.104.41-.942 2.258-2.828 3.755-5.656 4.49-1.012.266-2.162.399-3.451.399l-.052-.01Zm-.177-4.597c0 .812.336 1.218 1.008 1.218.569 0 1.14-.347 1.716-1.04.603-.72.904-1.45.904-2.192 0-.756-.36-1.256-1.08-1.5-1.242.35-2.035 1.133-2.382 2.35-.11.37-.166.759-.166 1.164Z"/>
  <path fill="#000" d="M32.563 23.033c0 .28-.232.42-.697.42-1.074 0-1.798-.448-2.173-1.344a2.81 2.81 0 0 1-.208-1.101c0-.4.066-.84.198-1.322.125-.476.302-.997.53-1.564.222-.573.485-1.175.79-1.805.305-.636.631-1.27.978-1.899a33.22 33.22 0 0 1 1.081-1.825c.381-.588.759-1.126 1.133-1.616.998-1.308 1.788-2 2.37-2.078.084-.014.157-.02.22-.02.062 0 .138.003.228.01.229.02.398.108.51.262-.119.26-.26.563-.427.913-.16.343-.33.724-.51 1.144 1.36-1.05 2.8-1.756 4.326-2.12.499-.126.974-.189 1.424-.189.901 0 1.133.42.697 1.26-.208.405-.492.856-.853 1.353-.36.49-.63.87-.81 1.144-.43.643-.645 1.126-.645 1.448 0 .573.308.86.925.86.54 0 1.15-.245 1.83-.735a6.232 6.232 0 0 0 1.56-1.636c.18-.014.3.02.363.105.07.084.104.178.104.283 0 .098-.045.255-.135.472-.09.217-.236.497-.437.84a8.685 8.685 0 0 1-.717 1.06c-.277.363-.596.723-.957 1.08-.36.35-.755.664-1.185.944-.95.609-1.94.913-2.973.913-1.102 0-1.844-.402-2.225-1.207-.125-.258-.188-.577-.188-.954 0-.378.105-.78.312-1.207a7.87 7.87 0 0 1 .77-1.228c.298-.398.61-.769.936-1.112.325-.343.599-.64.82-.892.23-.251.375-.45.438-.598.062-.147-.021-.22-.25-.22s-.523.077-.884.23a7.492 7.492 0 0 0-1.112.588c-.873.546-1.587 1.158-2.142 1.837-1.99 4.7-2.994 7.869-3.015 9.506Z"/>
  <path fill="#000" d="M51.87 6.644a4.26 4.26 0 0 1-1.778.43c-.242 0-.46-.028-.655-.084a1.822 1.822 0 0 1-.52-.262c-.333-.245-.499-.54-.499-.882 0-.343.06-.633.177-.87a1.77 1.77 0 0 1 .53-.61c.492-.363 1.081-.545 1.768-.545.693 0 1.195.144 1.507.43.319.287.478.616.478.987 0 .37-.097.66-.29.87-.195.21-.434.389-.718.536ZM43.864 17c-.145-.315-.218-.7-.218-1.155 0-.461.097-.947.291-1.458.201-.51.454-1.018.76-1.521.311-.511.658-1 1.039-1.47.381-.475.759-.895 1.133-1.259.825-.79 1.431-1.185 1.82-1.185.166 0 .35.073.55.22.208.14.34.245.396.315-1.047 1.133-1.709 2.228-1.986 3.284-.09.322-.135.637-.135.944 0 .301.114.574.343.819.229.238.513.357.852.357.34 0 .655-.063.946-.19.298-.132.59-.304.874-.513a6.486 6.486 0 0 0 1.476-1.595c.312-.021.468.108.468.388 0 .23-.146.595-.437 1.091-.284.497-.568.927-.852 1.29-.284.357-.61.71-.978 1.06a7.36 7.36 0 0 1-1.185.934c-.963.616-1.954.924-2.973.924-1.075 0-1.802-.427-2.184-1.28Z"/>
  <path fill="#000" d="M58.628 10.6c-.527-.28-.995-.42-1.404-.42-.402 0-.77.094-1.102.283a3.045 3.045 0 0 0-.863.724c-.526.636-.79 1.343-.79 2.12 0 .587.208 1.048.624 1.384.381.322.943.483 1.684.483.742 0 1.47-.22 2.184-.661.72-.448 1.351-1.088 1.892-1.92.312-.021.468.108.468.388 0 .112-.087.374-.26.787-.167.406-.472.91-.915 1.51a8.354 8.354 0 0 1-1.539 1.596c-1.261 1-2.634 1.5-4.117 1.5-1.2 0-2.142-.311-2.828-.934-.693-.63-1.04-1.535-1.04-2.717 0-.924.36-1.85 1.082-2.78A7.994 7.994 0 0 1 54.25 9.79c1.046-.573 2.024-.86 2.932-.86.492 0 .873.084 1.143.252.472.294.707.573.707.84 0 .286-.135.478-.405.576Z"/>
  <path fill="#000" d="M65.677 16.538c-.95 1.119-2.107 1.679-3.473 1.679-.866 0-1.56-.263-2.079-.787-.513-.518-.77-1.2-.77-2.046 0-1.07.417-2.11 1.248-3.117.804-.979 1.858-1.776 3.16-2.392a9.728 9.728 0 0 1 4.19-.955c.548 0 .94.088 1.176.263.187-.224.353-.354.499-.388.152-.042.27-.063.353-.063.264 0 .544.038.842.115-.027.09-.086.248-.176.472-.09.217-.191.476-.302.777-.11.3-.229.63-.353.986-.45 1.273-.676 2.228-.676 2.864 0 .63.197.945.593.945.512 0 1.084-.235 1.715-.703a6.486 6.486 0 0 0 1.476-1.595c.312-.021.468.108.468.388 0 .238-.145.601-.436 1.091-.285.49-.562.913-.832 1.27-.27.356-.572.706-.905 1.049-.332.343-.686.65-1.06.923-.839.602-1.657.903-2.454.903-1.012 0-1.691-.308-2.038-.924-.11-.189-.166-.353-.166-.493v-.262Zm-2.974-2.865c0 .812.337 1.218 1.009 1.218.742 0 1.615-.605 2.62-1.816.534-.643.998-1.259 1.393-1.846.402-.588.707-1.035.915-1.343-1.733.014-3.171.412-4.315 1.196-1.08.741-1.622 1.605-1.622 2.591Z"/>
  <path fill="#000" d="M80.087 3.632c.77 0 1.154.654 1.154 1.962 0 1.728-1.04 3.554-3.119 5.477a15.52 15.52 0 0 1-2.495 1.9c.09 1.077.482 1.692 1.175 1.846.221.05.481.074.78.074.304 0 .63-.039.977-.116a4.485 4.485 0 0 0 1.05-.399c.77-.398 1.41-.993 1.923-1.783.312-.021.468.108.468.388 0 .112-.076.346-.229.703-.145.357-.42.822-.821 1.395a7.953 7.953 0 0 1-1.445 1.543c-1.29 1.063-2.72 1.595-4.294 1.595-1.816 0-2.915-.784-3.296-2.35a6.63 6.63 0 0 1-.187-1.638c0-.608.09-1.22.27-1.836.18-.615.423-1.224.728-1.825.305-.609.659-1.203 1.06-1.784.41-.58.84-1.126 1.29-1.637.457-.51.922-.979 1.393-1.406.471-.433.929-.808 1.372-1.122.95-.658 1.698-.987 2.246-.987Zm-4.46 8.069a11.324 11.324 0 0 0 2.942-2.644c.811-1.042 1.216-1.962 1.216-2.76 0-.398-.083-.685-.25-.86-.054-.063-.151-.094-.29-.094-.139 0-.333.09-.582.272-.25.175-.506.417-.77.724a8.476 8.476 0 0 0-.78 1.092c-.249.412-.478.853-.686 1.322-.457 1.056-.724 2.039-.8 2.948ZM13.36 33.828c0-.538.083-1.157.25-1.857.166-.706.408-1.434.727-2.182.326-.748.718-1.5 1.175-2.256.464-.755.991-1.483 1.58-2.182a17.26 17.26 0 0 1 1.945-1.962 14.128 14.128 0 0 1 2.266-1.595c1.726-.966 3.518-1.448 5.375-1.448 1.72 0 3.092.392 4.117 1.175 1.089.832 1.633 1.98 1.633 3.441 0 1.392-.454 2.686-1.362 3.883-.839 1.09-1.913 1.934-3.223 2.528.367.896.64 1.483.821 1.763.367.56.721.84 1.06.84.347 0 .715-.088 1.103-.263a5.553 5.553 0 0 0 1.112-.672c.728-.552 1.31-1.16 1.747-1.825.312-.021.468.108.468.388 0 .259-.177.7-.53 1.322a13.899 13.899 0 0 1-.999 1.532c-.305.406-.644.794-1.019 1.165a7.958 7.958 0 0 1-1.206.965c-.942.602-1.906.902-2.89.902-2.059 0-3.088-1.42-3.088-4.26 0-.391.014-.783.042-1.175-1.02-.09-1.743-.584-2.173-1.48a3.143 3.143 0 0 1-.291-1.09c-1.678 3.168-3.095 5.32-4.253 6.452-.769.756-1.465 1.134-2.09 1.134-.685 0-1.24-.287-1.663-.86-.423-.574-.634-1.368-.634-2.383Zm3.171-1.52c0 .629.118.943.354.943.436 0 1.857-1.832 4.262-5.498a99.834 99.834 0 0 0 2.818-4.553c.222-.385.592-.437 1.112-.158.118.063.205.116.26.158-.388.608-1.026 1.78-1.913 3.515.561-.371.974-.556 1.237-.556.27 0 .503.073.697.22.2.147.392.346.572.598.305.434.63 1.084.977 1.952.943-.4 1.74-1.029 2.391-1.89.673-.887 1.009-1.776 1.009-2.664 0-1.952-1.317-2.927-3.951-2.927-1.948 0-3.694.615-5.24 1.846-1.268 1.008-2.325 2.361-3.171 4.06-.693 1.372-1.14 2.722-1.341 4.05a6.543 6.543 0 0 0-.073.903Zm8.266-4.093c0-.602-.125-.902-.375-.902s-.423.077-.52.23c-.097.148-.145.273-.145.378 0 .098.007.21.02.336.014.126.101.294.26.504.16.21.392.36.697.45.042-.419.063-.751.063-.996Z"/>
  <path fill="#000" d="M41.858 32.255c0 .839.294 1.259.884 1.259.512 0 1.084-.235 1.715-.703a6.489 6.489 0 0 0 1.476-1.595c.312-.021.468.108.468.388 0 .238-.145.602-.437 1.091-.284.49-.56.913-.831 1.27-.27.357-.572.706-.905 1.05-.333.342-.686.65-1.06.922-.839.602-1.657.903-2.454.903-1.206 0-2.01-.434-2.412-1.301-.762.573-1.566.968-2.412 1.185a3.823 3.823 0 0 1-.977.116c-.354 0-.707-.063-1.06-.19a2.578 2.578 0 0 1-.895-.566c-.513-.503-.77-1.196-.77-2.077 0-.986.333-2.022.999-3.106a9.34 9.34 0 0 1 2.12-2.392c.79-.63 1.429-.944 1.914-.944.263 0 .561.21.894.63a6.85 6.85 0 0 0-1.757 1.846c-.548.832-.822 1.584-.822 2.256 0 .811.337 1.217 1.009 1.217.665 0 1.189-.116 1.57-.347.27-1.09.877-2.217 1.82-3.378.935-1.154 1.791-1.878 2.567-2.172.25-.09.59.028 1.02.357.103.077.183.143.238.2-.589.51-1.067 1.202-1.434 2.077-.312.741-.468 1.41-.468 2.004Z"/>
  <path fill="#000" d="M49.23 28.383c.928-.553 1.832-.829 2.713-.829 1.4 0 2.28.539 2.64 1.616.111.329.167.738.167 1.227 0 1.064-.388 2.158-1.165 3.285.652-.091 1.283-.35 1.893-.777a6.163 6.163 0 0 0 1.59-1.69c.312-.02.468.11.468.39 0 .111-.035.247-.104.408-1.317 3.225-4.516 4.837-9.596 4.837h-.02c-.937 0-1.71-.276-2.32-.829-.665-.608-.998-1.458-.998-2.55 0-1.342 1.214-3.77 3.64-7.28 1.025-1.498 1.902-2.666 2.63-3.505.2-.231.471-.347.81-.347.375 0 .649.14.822.42-1.428 2.26-2.485 4.134-3.17 5.624Zm-1.072 2.906c-.09.441-.135.812-.135 1.112 0 .301.09.557.27.766.18.203.413.305.697.305.291 0 .586-.05.884-.147a4.54 4.54 0 0 0 .873-.42 5.59 5.59 0 0 0 .811-.608c.257-.238.482-.494.676-.766.416-.588.624-1.144.624-1.669 0-.335-.084-.59-.25-.766-.277-.293-.59-.44-.936-.44-.34 0-.686.073-1.04.22a3.99 3.99 0 0 0-.997.577c-.673.51-1.165 1.123-1.477 1.836Z"/>
  <path fill="#000" d="M62.007 34.836c-1.22 1.154-2.37 1.731-3.452 1.731-.707 0-1.3-.217-1.778-.65-.513-.462-.77-1.116-.77-1.963 0-.972.337-1.993 1.01-3.063a10.14 10.14 0 0 1 2.079-2.382c.762-.637 1.334-.955 1.715-.955.243 0 .44.105.593.315a5.118 5.118 0 0 0-1.227 1.395c-.665 1.091-.998 1.913-.998 2.466 0 1.154.312 1.731.936 1.731.644 0 1.41-.454 2.297-1.364.908-.93 1.54-1.965 1.893-3.106.055-.377.1-.807.135-1.29.582-.217.994-.178 1.237.115.09.112.135.298.135.556 0 .252-.031.581-.093.987-.056.405-.15.864-.281 1.374a23.755 23.755 0 0 1-1.123 3.4c.991-.273 1.986-.924 2.984-1.952.305-.315.565-.636.78-.965.312-.021.468.108.468.388 0 .112-.084.37-.25.776-.166.4-.44.864-.821 1.396-.375.525-.79.986-1.248 1.385-.936.811-1.972 1.329-3.109 1.553-1.337 2.476-2.734 4.106-4.19 4.89-.526.286-1.029.43-1.507.43s-.922-.07-1.331-.21a3.946 3.946 0 0 1-1.102-.578c-.735-.566-1.102-1.241-1.102-2.025 0-.3.1-.611.301-.933.375-.602.777-.987 1.206-1.154.805.545 1.49.884 2.059 1.017a3.6 3.6 0 0 0 .79.084c.277 0 .569-.084.873-.252.312-.167.631-.402.957-.703.68-.636 1.324-1.451 1.934-2.444Z"/>
</svg>
