<svg xmlns="http://www.w3.org/2000/svg" fill="none" viewBox="0 0 14 14">
  <path fill="#000" fill-rule="evenodd" d="M3.038 1.862c0 .792-.603 1.434-1.546 1.434-.907 0-1.51-.642-1.492-1.434C-.018 1.032.585.41 1.51.41s1.51.622 1.528 1.453ZM.076 13.657V4.428h2.868v9.228H.076ZM5.244 7.373c0-1.15-.038-2.132-.076-2.944h2.491l.133 1.265h.056c.378-.586 1.321-1.472 2.85-1.472C12.585 4.222 14 5.468 14 8.184v5.474h-2.868V8.544c0-1.19-.415-2.001-1.453-2.001-.793 0-1.264.547-1.453 1.075a2.036 2.036 0 0 0-.113.718v5.322H5.245V7.373h-.001Z" clip-rule="evenodd"/>
</svg>
