<svg xmlns="http://www.w3.org/2000/svg" fill="none" viewBox="0 0 69 20">
  <g clip-path="url(#a)">
    <path fill="#000" d="M5.009.51H.446v17.957h3.75v-6.532h.813c2.914 0 5.662-2.21 5.662-5.762 0-3.677-2.843-5.664-5.662-5.664Zm-.143 8.593-.717.025V3.39l.812.05c.908.05 1.887.844 1.887 2.782 0 1.863-.955 2.857-1.982 2.881Zm10.009-3.551c-2.771 0-4.73 2.98-4.73 6.532 0 4.098 1.983 6.831 4.682 6.831 2.341 0 3.99-1.938 4.348-4.148H15.83c.048 1.167-.31 1.913-.908 1.913-1.1 0-1.314-1.888-1.386-3.726h5.782c.048-.447.071-.895.071-1.192.001-2.932-1.36-6.21-4.514-6.21Zm1.123 5.191h-2.413c.024-1.366.335-2.832 1.243-2.832.86 0 1.194 1.466 1.17 2.832Zm8.5-4.844h1.791v2.484h-1.791v6.683c0 .62.19.918.645.918.358 0 .765-.124 1.1-.273l-.049 2.21c-.597.398-1.48.795-2.364.795-1.912 0-2.867-1.043-2.867-3.503v-6.83h-1.481V5.897h1.553l.883-3.501h2.58v3.502ZM31.88.51h-4.564v17.958h3.75v-6.532h.813c2.915 0 5.662-2.21 5.662-5.762 0-3.677-2.842-5.664-5.661-5.664Zm-.144 8.594-.716.025V3.39l.812.05c.908.05 1.887.844 1.887 2.782 0 1.863-.956 2.857-1.983 2.881ZM41.546.51l.286 5.366v12.592h-3.535V.51h3.249Zm9.747 9.538c0-3.303-1.769-4.396-3.966-4.396-2.461 0-3.942 1.813-4.301 4.023h3.536c-.096-1.093.096-2.036.692-2.036.693 0 .86.894.86 2.384v.894c0 .15.024.398.024.398-.621-.273-1.028-.422-1.887-.398-1.887.05-3.321 1.441-3.321 3.825 0 2.335.98 4.024 2.652 4.024 1.242 0 2.03-.944 2.604-1.913h.143c0 .571-.024 1.019-.072 1.614h3.25c-.144-.82-.215-2.061-.215-2.956v-5.463Zm-3.154 4.919c-.335.72-.693 1.465-1.267 1.465-.645 0-.86-.894-.86-1.863 0-1.019.335-1.863 1.027-1.938.43-.05.717.075 1.1.25v2.086Zm8.748-9.067h1.792v2.484h-1.792v6.683c0 .62.191.918.645.918.359 0 .765-.124 1.1-.273l-.048 2.21c-.598.398-1.481.795-2.365.795-1.911 0-2.867-1.043-2.867-3.503v-6.83h-1.48V5.897h1.552l.884-3.502h2.58v3.503Zm11.24 5.862c0-2.931-1.36-6.21-4.514-6.21-2.772 0-4.73 2.98-4.73 6.532 0 4.098 1.982 6.831 4.681 6.831 2.342 0 3.99-1.937 4.348-4.148h-3.344c.048 1.167-.311 1.913-.908 1.913-1.1 0-1.314-1.888-1.386-3.726h5.781c.048-.447.073-.894.073-1.192Zm-3.392-1.018h-2.412c.023-1.366.334-2.832 1.242-2.832.86 0 1.194 1.466 1.17 2.832Z"/>
  </g>
  <defs>
    <clipPath id="a">
      <path fill="#fff" d="M0 0h68v19H0z" transform="translate(.438 .5)"/>
    </clipPath>
  </defs>
</svg>
