<svg width="79" height="28" viewBox="0 0 79 28" fill="none" xmlns="http://www.w3.org/2000/svg">
<path d="M7.38824 6.44128C9.39453 6.44132 11.0742 6.98073 12.272 7.92664C13.459 8.86415 14.1748 10.2029 14.2672 11.8202H10.315C10.0962 10.3863 8.78843 9.6239 7.52106 9.6239C6.88394 9.62392 6.32592 9.76622 5.92633 10.0468C5.52526 10.3283 5.28573 10.7482 5.28571 11.2938C5.28571 11.7322 5.43341 12.0574 5.69293 12.3016C5.95082 12.5443 6.31686 12.7047 6.74957 12.8231C7.18284 12.9416 7.68808 13.0191 8.22614 13.0917C8.76475 13.1643 9.3371 13.2323 9.90973 13.3329C11.0559 13.5343 12.1949 13.8651 13.0474 14.6132C13.8981 15.3596 14.4693 16.5269 14.4693 18.4149C14.4692 20.0004 13.826 21.3118 12.6959 22.2274C11.5649 23.1437 9.94326 23.6659 7.98688 23.6659C6.03144 23.6658 4.31855 23.0937 3.07477 22.0731C1.84084 21.0605 1.06738 19.6046 0.975159 17.8212H4.89313C4.98352 18.5637 5.31746 19.1683 5.84625 19.5887C6.38279 20.0153 7.1156 20.2499 7.98785 20.2499C8.70921 20.2499 9.32508 20.0737 9.76129 19.7772C10.1975 19.4805 10.4555 19.0621 10.4556 18.5809C10.4556 18.1429 10.3112 17.8102 10.0572 17.5526C9.80433 17.2964 9.4453 17.1158 9.02008 16.9764C8.59456 16.837 8.09837 16.7369 7.56989 16.6425C7.04062 16.5479 6.47829 16.459 5.91559 16.3417C4.78985 16.107 3.67095 15.7605 2.83356 15.037C1.99819 14.3152 1.43805 13.2139 1.43805 11.4598C1.43811 8.5266 3.97593 6.44128 7.38824 6.44128Z" stroke="#202020" style="fill:#202020;fill:color(display-p3 0.1255 0.1255 0.1255);fill-opacity:1;stroke:#202020;stroke:color(display-p3 0.1255 0.1255 0.1255);stroke-opacity:1;" stroke-width="0.078317"/>
<path d="M69.748 6.44128C72.5819 6.44128 74.6426 7.52665 75.9951 9.08582C77.348 10.6458 77.994 12.6824 77.9941 14.5868C77.9941 15.1974 77.963 15.6837 77.9306 16.0458H65.8759L65.8828 16.0897C66.0501 17.2775 66.5107 18.2432 67.2255 18.912C67.9408 19.581 68.9078 19.9501 70.081 19.9501C71.0171 19.9501 71.7982 19.766 72.3925 19.3993C72.9797 19.0369 73.3816 18.4973 73.5703 17.787H78.0185C77.3386 21.3655 74.1752 23.6658 70.081 23.6659C64.4176 23.6659 61.502 19.2296 61.5019 15.0204C61.5019 12.9149 62.1487 10.7693 63.5019 9.15125C64.8542 7.53437 66.9144 6.44128 69.748 6.44128ZM69.748 9.75769C68.6933 9.75769 67.8432 10.0171 67.206 10.5741C66.5691 11.1309 66.1498 11.9802 65.9492 13.1503L65.9413 13.1962H73.4501L73.4472 13.1542C73.38 12.2144 73.0189 11.3647 72.3915 10.7499C71.7638 10.1348 70.8717 9.75769 69.748 9.75769Z" stroke="#202020" style="fill:#202020;fill:color(display-p3 0.1255 0.1255 0.1255);fill-opacity:1;stroke:#202020;stroke:color(display-p3 0.1255 0.1255 0.1255);stroke-opacity:1;" stroke-width="0.078317"/>
<path d="M52.1368 6.44208H52.1378C55.0277 6.44212 56.9877 7.38397 58.2256 8.76141C59.4643 10.1399 59.9844 11.9596 59.9844 13.7204V23.4001H55.4044V11.3727C55.4042 10.8845 55.0079 10.489 54.5196 10.489H49.754C49.2659 10.4892 48.8703 10.8846 48.8702 11.3727V23.4001H44.2901V13.7204C44.2901 11.9596 44.8102 10.1399 46.0489 8.76141C47.2868 7.38399 49.2468 6.44208 52.1368 6.44208Z" stroke="#202020" style="fill:#202020;fill:color(display-p3 0.1255 0.1255 0.1255);fill-opacity:1;stroke:#202020;stroke:color(display-p3 0.1255 0.1255 0.1255);stroke-opacity:1;" stroke-width="0.078317"/>
<path d="M20.5897 3.32898V6.70886H25.0818V10.4891H20.5887L20.5897 10.5282L20.6004 18.6805C20.6007 19.1383 20.9484 19.5144 21.3943 19.5594L21.4842 19.5643L25.0818 19.5839V23.3993H22.3592C20.4363 23.3993 18.8579 22.8523 17.7606 21.8251C16.6637 20.7982 16.0428 19.2873 16.0428 17.3495V3.32898H20.5897Z" stroke="#202020" style="fill:#202020;fill:color(display-p3 0.1255 0.1255 0.1255);fill-opacity:1;stroke:#202020;stroke:color(display-p3 0.1255 0.1255 0.1255);stroke-opacity:1;" stroke-width="0.078317"/>
<path d="M29.253 14.4912C28.9614 14.8389 28.9777 15.3574 29.3047 15.6846L34.17 20.5498L34.1807 20.5615L34.1817 20.5625C34.1824 20.5632 34.1833 20.565 34.1846 20.5664C34.1874 20.5692 34.192 20.5728 34.1973 20.5781C34.208 20.5889 34.2235 20.605 34.2442 20.625C34.2857 20.6651 34.3473 20.7225 34.4268 20.791C34.5858 20.9279 34.818 21.1106 35.1104 21.293C35.695 21.6576 36.5236 22.0234 37.4942 22.0234C38.5025 22.0234 39.2669 21.7755 39.8214 21.4766C39.8437 21.4647 39.864 21.4727 39.876 21.4902C39.8881 21.508 39.8882 21.5303 39.8682 21.5479C38.2271 22.9808 36.0377 23.803 33.6544 23.6533C29.4391 23.3883 26.0014 20.0366 25.6319 15.8291C25.5576 14.9865 25.6068 14.1666 25.7608 13.3848L29.253 14.4912Z" fill="#202020" stroke="#202020" style="fill:#202020;fill:color(display-p3 0.1255 0.1255 0.1255);fill-opacity:1;stroke:#202020;stroke:color(display-p3 0.1255 0.1255 0.1255);stroke-opacity:1;" stroke-width="0.078317"/>
<path d="M34.2097 6.44617C38.9652 6.44637 42.821 10.3021 42.821 15.0585C42.8209 15.6983 42.7465 16.3198 42.614 16.9198L39.154 15.6376C39.4572 15.2898 39.4449 14.7624 39.114 14.4315L34.239 9.55652H34.238V9.55554C34.2373 9.55482 34.2362 9.55394 34.235 9.55261C34.2325 9.54975 34.2283 9.54535 34.2233 9.53992C34.2133 9.52907 34.1988 9.51302 34.1794 9.49304C34.1402 9.45288 34.0814 9.39555 34.0056 9.32703C33.8539 9.19005 33.6308 9.00741 33.3444 8.82507C32.7712 8.4602 31.9429 8.09461 30.9255 8.0946C29.9149 8.0946 29.1487 8.34371 28.5934 8.64343V8.64441C28.5492 8.66854 28.5057 8.60812 28.5446 8.5741C30.0587 7.24949 32.0399 6.44617 34.2097 6.44617Z" fill="#202020" stroke="#202020" style="fill:#202020;fill:color(display-p3 0.1255 0.1255 0.1255);fill-opacity:1;stroke:#202020;stroke:color(display-p3 0.1255 0.1255 0.1255);stroke-opacity:1;" stroke-width="0.078317"/>
<path d="M29.3223 14.4728L29.3281 14.4669L33.2363 10.5547C33.2363 10.5547 31.9699 9.10846 29.9566 9.10846C25.2095 9.10846 25.5677 15.452 25.5677 15.452" fill="url(#paint0_linear_3111_34117)"/>
<path d="M39.0877 15.6545L39.0819 15.6604L35.1733 19.572C35.1733 19.572 36.4397 21.0183 38.453 21.0183C43.2001 21.0183 42.8419 14.6748 42.8419 14.6748" fill="url(#paint1_linear_3111_34117)"/>
<defs>
<linearGradient id="paint0_linear_3111_34117" x1="31.618" y1="8.9621" x2="27.2229" y2="13.3572" gradientUnits="userSpaceOnUse">
<stop offset="0.04917" stop-color="#211D1D" stop-opacity="0" style="stop-color:none;stop-opacity:0;"/>
<stop offset="0.24295" stop-color="#211D1D" stop-opacity="0.32294" style="stop-color:#211D1D;stop-color:color(display-p3 0.1294 0.1137 0.1137);stop-opacity:0.32294;"/>
<stop offset="0.58068" stop-color="#211D1D" stop-opacity="0.81351" style="stop-color:#211D1D;stop-color:color(display-p3 0.1294 0.1137 0.1137);stop-opacity:0.81351;"/>
<stop offset="0.76356" stop-color="#211D1D" style="stop-color:#211D1D;stop-color:color(display-p3 0.1294 0.1137 0.1137);stop-opacity:1;"/>
</linearGradient>
<linearGradient id="paint1_linear_3111_34117" x1="36.7918" y1="21.1649" x2="41.1165" y2="16.8402" gradientUnits="userSpaceOnUse">
<stop offset="0.04917" stop-color="#211D1D" stop-opacity="0" style="stop-color:none;stop-opacity:0;"/>
<stop offset="0.24214" stop-color="#211D1D" stop-opacity="0.32294" style="stop-color:#211D1D;stop-color:color(display-p3 0.1294 0.1137 0.1137);stop-opacity:0.32294;"/>
<stop offset="0.57846" stop-color="#211D1D" stop-opacity="0.81351" style="stop-color:#211D1D;stop-color:color(display-p3 0.1294 0.1137 0.1137);stop-opacity:0.81351;"/>
<stop offset="0.76057" stop-color="#211D1D" style="stop-color:#211D1D;stop-color:color(display-p3 0.1294 0.1137 0.1137);stop-opacity:1;"/>
</linearGradient>
</defs>
</svg>
