<svg xmlns="http://www.w3.org/2000/svg" fill="none" viewBox="0 0 73 18">
  <g clip-path="url(#a)">
    <path fill="#000" d="M50.912 10.649 48.399.706h-3.093v16.64h2.224V5.29l3.045 12.055h2.513V.706h-2.175l-.001 9.943Zm-14.257 6.697h6.667v-2.371h-4.25v-4.893h3.383V7.71h-3.383V3.076h4.25V.706h-6.667v16.64ZM70.243.706 68.358 8.28 66.473.706h-2.561l3.093 11.127v5.513h2.465v-5.513L72.563.706h-2.32ZM59.03 14.254 57.146.654h-2.465l2.417 16.64h3.672L63.188.654h-2.27l-1.886 13.6ZM32.112 4.776c0-1.185-.387-1.7-1.257-1.7h-1.16v5.1h.967c.919 0 1.45-.413 1.45-1.752V4.776Zm2.465 10.56a4.388 4.388 0 0 0 .29 2.01h-2.513c-.145-.413-.242-.671-.242-2.061v-2.627c0-1.546-.483-2.112-1.595-2.112h-.87v6.8h-2.465V.706h3.722c2.561 0 3.624 1.236 3.624 3.812v1.288c0 1.7-.531 2.834-1.594 3.4 1.208.567 1.643 1.803 1.643 3.555v2.575ZM8.818 3.076h2.562v14.271h2.464V3.076h2.562V.706H8.818v2.37Zm13.919 1.442c0-1.185-.484-1.648-1.257-1.648-.773 0-1.305.463-1.305 1.648v9.015c0 1.185.483 1.649 1.257 1.649.773 0 1.256-.464 1.256-1.649V4.518h.049Zm2.465.155v8.654c0 2.68-1.305 4.173-3.722 4.173-2.416 0-3.72-1.546-3.72-4.173V4.673C17.758 2.046 19.062.5 21.48.5c2.368 0 3.721 1.546 3.721 4.173ZM7.658 13.327c0 2.68-1.256 4.173-3.673 4.173-2.416 0-3.672-1.546-3.672-4.173v-1.029h2.32v1.185c0 1.185.482 1.597 1.256 1.597.773 0 1.256-.412 1.256-1.597 0-3.4-4.784-4.071-4.784-8.81C.409 2.047 1.666.5 4.034.5c2.368 0 3.624 1.546 3.624 4.173v.515h-2.32v-.671c0-1.184-.436-1.646-1.208-1.646s-1.208.462-1.208 1.647c-.048 3.453 4.736 4.07 4.736 8.81Z"/>
  </g>
  <defs>
    <clipPath id="a">
      <path fill="#fff" d="M0 0h72.25v17H0z" transform="translate(.313 .5)"/>
    </clipPath>
  </defs>
</svg>
