<svg xmlns="http://www.w3.org/2000/svg" fill="none" viewBox="0 0 58 18">
  <g clip-path="url(#a)">
    <path fill="#000" fill-rule="evenodd" d="M22.244 7.806c.1.058.204.109.31.153.098.04.198.072.3.095.416-.34.733-.723.952-1.15.217-.417.33-.88.328-1.351-.003-.914-.326-1.66-.971-2.239-.646-.58-1.477-.868-2.496-.866-.098 0-.26.015-.49.046h-.06l.014 6.787a12.389 12.389 0 0 0 2.113-1.475Zm.87 1.22 3.408 4.576c.308.418.62.833.938 1.243.27.35.605.835.884 1.237.182.263.34.492.441.626l-3.873-.006c-.435-.62-.712-1.035-.957-1.401-.326-.487-.596-.89-1.107-1.585a146.213 146.213 0 0 0-2.715-3.576c.002.989.081 3.476.081 3.463 0-.043.117 3.12.104 3.12l-3.309.038L16.976.534h.887S22.12.459 22.836.532c1.387.14 2.21.571 3.074 1.267.866.696 1.3 1.606 1.302 2.73.003 1.025-.354 1.93-1.07 2.716-.715.786-1.725 1.38-3.028 1.781ZM11.278 2.374h-3.17V16.75H4.786V2.374H0L1.265.523h11.242l-1.229 1.85Zm41.976 12.45c.615 0 1.275-.009 1.98-.028.704-.018 1.466-.046 2.283-.083l-.862 1.972H48.03c.057-1.27.1-2.572.128-3.906A196.316 196.316 0 0 0 48.03.523H57.3l-.717 1.77h-5.139a259.144 259.144 0 0 0-.085 5.156l6.001.012-.729 1.86h-5.272c0 .92.01 1.835.03 2.746.021.92.056 1.839.105 2.758h1.76ZM40.21 11.544c0 2.615-.34 4.616-2.97 4.616-2.481 0-2.91-2-2.91-4.617V.523h-3.25v11.02c0 2.979.645 5.957 6.154 5.957 5.581 0 6.226-2.979 6.226-5.957V.523h-3.25V11.543Z" clip-rule="evenodd"/>
  </g>
  <defs>
    <clipPath id="a">
      <path fill="#fff" d="M0 0h58v17H0z" transform="translate(0 .5)"/>
    </clipPath>
  </defs>
</svg>
