<svg xmlns="http://www.w3.org/2000/svg" fill="none" viewBox="0 0 85 32">
  <path fill="#000" fill-rule="evenodd" d="M3.996 4.092C3.016 2.234 4.356 0 6.45 0h27.003c2.04 0 3.344 2.18 2.388 3.988L22.306 29.553c-1.045 1.977-3.867 1.973-4.909-.006l-2.96-5.625-2.36 4.459a1.805 1.805 0 0 1-1.59.961 1.796 1.796 0 0 1-1.592-.961L.207 11.875A1.813 1.813 0 0 1 .915 9.46c.27-.153.575-.233.885-.233h4.897L3.996 4.092Zm11.491 17.857 5.836-11.026a1.174 1.174 0 0 0-.455-1.568 1.162 1.162 0 0 0-.574-.152H8.646a1.195 1.195 0 0 0-1.024.584 1.206 1.206 0 0 0-.032 1.182l5.78 10.98a1.2 1.2 0 0 0 1.059.64 1.195 1.195 0 0 0 1.058-.64ZM59.22 11.86h2.954a.349.349 0 0 0 .364-.331V9.73a.351.351 0 0 0-.365-.332h-8.898a.333.333 0 0 0-.348.332v1.797a.335.335 0 0 0 .348.332h2.971v10.161a.35.35 0 0 0 .348.35h2.278a.348.348 0 0 0 .348-.35V11.86Zm12.436 10.437c-.609.087-1.632.227-3.51.227-2.243 0-4.225-.576-4.225-3.752v-5.798c0-3.177 2-3.735 4.242-3.735 1.877 0 2.884.14 3.493.226.243.035.348.123.348.35v1.625a.35.35 0 0 1-.348.35H67.99c-.817 0-1.113.279-1.113 1.187v1.588h4.64a.348.348 0 0 1 .349.35v1.658a.35.35 0 0 1-.349.35h-4.64v1.85c0 .907.296 1.186 1.113 1.186h3.666a.348.348 0 0 1 .348.35v1.623c0 .226-.105.33-.348.365Zm10.355.07h2.764c.14 0 .227-.07.226-.171a.393.393 0 0 0-.052-.175l-3.95-6.268 3.788-6.024a.248.248 0 0 0 .034-.105.252.252 0 0 0-.26-.227h-2.573c-.19 0-.347.175-.434.332L79.4 13.255 77.176 9.73c-.103-.157-.242-.332-.433-.332h-2.8a.25.25 0 0 0-.26.227.248.248 0 0 0 .035.105l3.805 5.987-3.766 6.305a.324.324 0 0 0-.035.123c0 .122.087.227.26.227h2.574c.19 0 .311-.14.433-.35l2.172-3.736 2.397 3.82c.121.19.226.262.452.262ZM48.76 9.434a.268.268 0 0 0-.264.217l-2.524 9.377c-.034.192-.086.262-.243.262s-.209-.073-.243-.262l-2.527-9.38a.27.27 0 0 0-.263-.217h-2.484a.267.267 0 0 0-.262.21.27.27 0 0 0 0 .12s3.083 10.755 3.117 10.86c.412 1.282 1.41 1.895 2.68 1.895 1.21 0 2.267-.642 2.68-1.89.05-.146 3.063-10.865 3.063-10.865a.271.271 0 0 0-.144-.303.268.268 0 0 0-.117-.027l-2.47.003Z" clip-rule="evenodd"/>
</svg>
